<mxfile host="app.diagrams.net" modified="2024-05-13T20:29:25.850Z" agent="Mozilla/5.0 (Windows NT 10.0; Win64; x64) AppleWebKit/537.36 (KHTML, like Gecko) Chrome/124.0.0.0 Safari/537.36" etag="yEdw-BrH3c3Auztavx0Q" version="24.4.0" type="google">
  <diagram name="Page-1" id="eeNC44Kv5N4OVH3Zcb83">
    <mxGraphModel grid="0" page="1" gridSize="10" guides="1" tooltips="1" connect="1" arrows="1" fold="1" pageScale="1" pageWidth="827" pageHeight="1169" math="0" shadow="0">
      <root>
        <mxCell id="0" />
        <mxCell id="1" parent="0" />
        <mxCell id="IYuZv80g8VhSKte-m324-1" value="MOVIE" style="rounded=0;whiteSpace=wrap;html=1;" vertex="1" parent="1">
          <mxGeometry x="-859.5" y="-582" width="120" height="26" as="geometry" />
        </mxCell>
        <mxCell id="IYuZv80g8VhSKte-m324-2" value="SERIES" style="rounded=0;whiteSpace=wrap;html=1;" vertex="1" parent="1">
          <mxGeometry x="111" y="434" width="120" height="26" as="geometry" />
        </mxCell>
        <mxCell id="IYuZv80g8VhSKte-m324-3" value="USERS_PROFILE" style="rounded=0;whiteSpace=wrap;html=1;" vertex="1" parent="1">
          <mxGeometry x="-1370.5" y="435" width="127" height="27" as="geometry" />
        </mxCell>
        <mxCell id="IYuZv80g8VhSKte-m324-8" value="genre" style="ellipse;whiteSpace=wrap;html=1;" vertex="1" parent="1">
          <mxGeometry x="-938" y="-678" width="66" height="22" as="geometry" />
        </mxCell>
        <mxCell id="IYuZv80g8VhSKte-m324-9" value="movieTitle" style="ellipse;whiteSpace=wrap;html=1;" vertex="1" parent="1">
          <mxGeometry x="-753" y="-685" width="84" height="22" as="geometry" />
        </mxCell>
        <mxCell id="IYuZv80g8VhSKte-m324-10" value="title" style="ellipse;whiteSpace=wrap;html=1;" vertex="1" parent="1">
          <mxGeometry x="244" y="320" width="79" height="22" as="geometry" />
        </mxCell>
        <mxCell id="IYuZv80g8VhSKte-m324-11" value="username" style="ellipse;whiteSpace=wrap;html=1;" vertex="1" parent="1">
          <mxGeometry x="-1556" y="372" width="79" height="25" as="geometry" />
        </mxCell>
        <mxCell id="IYuZv80g8VhSKte-m324-12" value="&lt;u&gt;userID&lt;/u&gt;" style="ellipse;whiteSpace=wrap;html=1;" vertex="1" parent="1">
          <mxGeometry x="-1166" y="348" width="79" height="22" as="geometry" />
        </mxCell>
        <mxCell id="IYuZv80g8VhSKte-m324-16" value="&lt;u&gt;seriesID&lt;/u&gt;" style="ellipse;whiteSpace=wrap;html=1;" vertex="1" parent="1">
          <mxGeometry x="348" y="606" width="79" height="22" as="geometry" />
        </mxCell>
        <mxCell id="IYuZv80g8VhSKte-m324-17" value="genre" style="ellipse;whiteSpace=wrap;html=1;" vertex="1" parent="1">
          <mxGeometry x="-17" y="533" width="66" height="22" as="geometry" />
        </mxCell>
        <mxCell id="IYuZv80g8VhSKte-m324-21" value="address" style="ellipse;whiteSpace=wrap;html=1;" vertex="1" parent="1">
          <mxGeometry x="-1492.25" y="514" width="63" height="22" as="geometry" />
        </mxCell>
        <mxCell id="IYuZv80g8VhSKte-m324-22" value="&lt;u&gt;movieID&lt;/u&gt;" style="ellipse;whiteSpace=wrap;html=1;" vertex="1" parent="1">
          <mxGeometry x="-1074" y="-543" width="75.5" height="24" as="geometry" />
        </mxCell>
        <mxCell id="IYuZv80g8VhSKte-m324-23" value="releaseDate" style="ellipse;whiteSpace=wrap;html=1;" vertex="1" parent="1">
          <mxGeometry x="-1044" y="-652" width="87.25" height="30" as="geometry" />
        </mxCell>
        <mxCell id="IYuZv80g8VhSKte-m324-24" style="edgeStyle=orthogonalEdgeStyle;rounded=0;orthogonalLoop=1;jettySize=auto;html=1;exitX=0.5;exitY=1;exitDx=0;exitDy=0;" edge="1" parent="1" source="IYuZv80g8VhSKte-m324-8" target="IYuZv80g8VhSKte-m324-8">
          <mxGeometry relative="1" as="geometry" />
        </mxCell>
        <mxCell id="IYuZv80g8VhSKte-m324-25" value="ReleaseYear" style="ellipse;whiteSpace=wrap;html=1;" vertex="1" parent="1">
          <mxGeometry x="81.5" y="625" width="83" height="34" as="geometry" />
        </mxCell>
        <mxCell id="IYuZv80g8VhSKte-m324-26" value="ACTOR" style="rounded=0;whiteSpace=wrap;html=1;" vertex="1" parent="1">
          <mxGeometry x="-510.25" y="258" width="120" height="26" as="geometry" />
        </mxCell>
        <mxCell id="IYuZv80g8VhSKte-m324-27" value="&lt;u&gt;actorID&lt;/u&gt;" style="ellipse;whiteSpace=wrap;html=1;" vertex="1" parent="1">
          <mxGeometry x="-672.5" y="195" width="97.5" height="31" as="geometry" />
        </mxCell>
        <mxCell id="IYuZv80g8VhSKte-m324-28" value="fullname" style="ellipse;whiteSpace=wrap;html=1;" vertex="1" parent="1">
          <mxGeometry x="-618.5" y="306" width="89" height="22" as="geometry" />
        </mxCell>
        <mxCell id="IYuZv80g8VhSKte-m324-31" value="" style="endArrow=none;html=1;rounded=0;exitX=1;exitY=0.5;exitDx=0;exitDy=0;entryX=0;entryY=0.25;entryDx=0;entryDy=0;" edge="1" parent="1" source="4xoYJjt1EuWZ6XjGn5b5-4" target="IYuZv80g8VhSKte-m324-3">
          <mxGeometry width="50" height="50" relative="1" as="geometry">
            <mxPoint x="-1458.000000000003" y="442.5" as="sourcePoint" />
            <mxPoint x="-1127" y="377" as="targetPoint" />
          </mxGeometry>
        </mxCell>
        <mxCell id="IYuZv80g8VhSKte-m324-32" value="" style="endArrow=none;html=1;rounded=0;exitX=1;exitY=1;exitDx=0;exitDy=0;entryX=0;entryY=0;entryDx=0;entryDy=0;" edge="1" parent="1" source="IYuZv80g8VhSKte-m324-11" target="IYuZv80g8VhSKte-m324-3">
          <mxGeometry width="50" height="50" relative="1" as="geometry">
            <mxPoint x="-1177" y="427" as="sourcePoint" />
            <mxPoint x="-1127" y="377" as="targetPoint" />
          </mxGeometry>
        </mxCell>
        <mxCell id="IYuZv80g8VhSKte-m324-34" value="" style="endArrow=none;html=1;rounded=0;exitX=0.5;exitY=1;exitDx=0;exitDy=0;entryX=0.925;entryY=0;entryDx=0;entryDy=0;entryPerimeter=0;" edge="1" parent="1" source="IYuZv80g8VhSKte-m324-12" target="IYuZv80g8VhSKte-m324-3">
          <mxGeometry width="50" height="50" relative="1" as="geometry">
            <mxPoint x="-1177" y="429" as="sourcePoint" />
            <mxPoint x="-1252" y="432" as="targetPoint" />
          </mxGeometry>
        </mxCell>
        <mxCell id="IYuZv80g8VhSKte-m324-35" value="" style="endArrow=none;html=1;rounded=0;exitX=1;exitY=0.5;exitDx=0;exitDy=0;entryX=0;entryY=0.75;entryDx=0;entryDy=0;" edge="1" parent="1" source="IYuZv80g8VhSKte-m324-22" target="IYuZv80g8VhSKte-m324-1">
          <mxGeometry width="50" height="50" relative="1" as="geometry">
            <mxPoint x="-666" y="-320" as="sourcePoint" />
            <mxPoint x="-861" y="-559" as="targetPoint" />
          </mxGeometry>
        </mxCell>
        <mxCell id="IYuZv80g8VhSKte-m324-36" value="" style="endArrow=none;html=1;rounded=0;exitX=1;exitY=1;exitDx=0;exitDy=0;entryX=0;entryY=0;entryDx=0;entryDy=0;" edge="1" parent="1" source="IYuZv80g8VhSKte-m324-23" target="IYuZv80g8VhSKte-m324-1">
          <mxGeometry width="50" height="50" relative="1" as="geometry">
            <mxPoint x="-666" y="-320" as="sourcePoint" />
            <mxPoint x="-841" y="-482" as="targetPoint" />
          </mxGeometry>
        </mxCell>
        <mxCell id="IYuZv80g8VhSKte-m324-37" value="" style="endArrow=none;html=1;rounded=0;exitX=0.5;exitY=1;exitDx=0;exitDy=0;entryX=0.142;entryY=0.013;entryDx=0;entryDy=0;entryPerimeter=0;" edge="1" parent="1" source="IYuZv80g8VhSKte-m324-8" target="IYuZv80g8VhSKte-m324-1">
          <mxGeometry width="50" height="50" relative="1" as="geometry">
            <mxPoint x="-666" y="-320" as="sourcePoint" />
            <mxPoint x="-616" y="-370" as="targetPoint" />
          </mxGeometry>
        </mxCell>
        <mxCell id="IYuZv80g8VhSKte-m324-38" value="" style="endArrow=none;html=1;rounded=0;exitX=0.5;exitY=1;exitDx=0;exitDy=0;" edge="1" parent="1" source="IYuZv80g8VhSKte-m324-9" target="IYuZv80g8VhSKte-m324-1">
          <mxGeometry width="50" height="50" relative="1" as="geometry">
            <mxPoint x="-666" y="-320" as="sourcePoint" />
            <mxPoint x="-616" y="-370" as="targetPoint" />
          </mxGeometry>
        </mxCell>
        <mxCell id="IYuZv80g8VhSKte-m324-41" value="" style="endArrow=none;html=1;rounded=0;exitX=1;exitY=0.5;exitDx=0;exitDy=0;entryX=0;entryY=0.75;entryDx=0;entryDy=0;" edge="1" parent="1" source="IYuZv80g8VhSKte-m324-28" target="IYuZv80g8VhSKte-m324-26">
          <mxGeometry width="50" height="50" relative="1" as="geometry">
            <mxPoint x="-306.25" y="173" as="sourcePoint" />
            <mxPoint x="-517.25" y="238" as="targetPoint" />
          </mxGeometry>
        </mxCell>
        <mxCell id="IYuZv80g8VhSKte-m324-42" value="" style="endArrow=none;html=1;rounded=0;exitX=1;exitY=0.5;exitDx=0;exitDy=0;entryX=0;entryY=0.25;entryDx=0;entryDy=0;" edge="1" parent="1" source="IYuZv80g8VhSKte-m324-27" target="IYuZv80g8VhSKte-m324-26">
          <mxGeometry width="50" height="50" relative="1" as="geometry">
            <mxPoint x="-306.25" y="173" as="sourcePoint" />
            <mxPoint x="-256.25" y="123" as="targetPoint" />
          </mxGeometry>
        </mxCell>
        <mxCell id="IYuZv80g8VhSKte-m324-45" value="" style="endArrow=none;html=1;rounded=0;exitX=0;exitY=0;exitDx=0;exitDy=0;entryX=1;entryY=1;entryDx=0;entryDy=0;" edge="1" parent="1" source="IYuZv80g8VhSKte-m324-16" target="IYuZv80g8VhSKte-m324-2">
          <mxGeometry width="50" height="50" relative="1" as="geometry">
            <mxPoint x="24" y="504" as="sourcePoint" />
            <mxPoint x="232" y="462" as="targetPoint" />
          </mxGeometry>
        </mxCell>
        <mxCell id="IYuZv80g8VhSKte-m324-46" value="" style="endArrow=none;html=1;rounded=0;entryX=0.252;entryY=0.893;entryDx=0;entryDy=0;entryPerimeter=0;exitX=1;exitY=0;exitDx=0;exitDy=0;" edge="1" parent="1" source="IYuZv80g8VhSKte-m324-2" target="IYuZv80g8VhSKte-m324-10">
          <mxGeometry width="50" height="50" relative="1" as="geometry">
            <mxPoint x="24" y="504" as="sourcePoint" />
            <mxPoint x="74" y="454" as="targetPoint" />
          </mxGeometry>
        </mxCell>
        <mxCell id="IYuZv80g8VhSKte-m324-47" value="" style="endArrow=none;html=1;rounded=0;entryX=0.5;entryY=0;entryDx=0;entryDy=0;exitX=0;exitY=1;exitDx=0;exitDy=0;" edge="1" parent="1" source="IYuZv80g8VhSKte-m324-2" target="IYuZv80g8VhSKte-m324-17">
          <mxGeometry width="50" height="50" relative="1" as="geometry">
            <mxPoint x="24" y="504" as="sourcePoint" />
            <mxPoint x="74" y="454" as="targetPoint" />
          </mxGeometry>
        </mxCell>
        <mxCell id="IYuZv80g8VhSKte-m324-48" value="" style="endArrow=none;html=1;rounded=0;exitX=0.25;exitY=1;exitDx=0;exitDy=0;entryX=0.394;entryY=-0.016;entryDx=0;entryDy=0;entryPerimeter=0;" edge="1" parent="1" source="IYuZv80g8VhSKte-m324-2" target="IYuZv80g8VhSKte-m324-25">
          <mxGeometry width="50" height="50" relative="1" as="geometry">
            <mxPoint x="24" y="504" as="sourcePoint" />
            <mxPoint x="130.75" y="696" as="targetPoint" />
          </mxGeometry>
        </mxCell>
        <mxCell id="WjvRyhV9_o4QKFCXP_5M-1" value="fullName" style="ellipse;whiteSpace=wrap;html=1;align=center;" vertex="1" parent="1">
          <mxGeometry x="-1419" y="380" width="72" height="25" as="geometry" />
        </mxCell>
        <mxCell id="WjvRyhV9_o4QKFCXP_5M-3" value="" style="endArrow=none;html=1;rounded=0;exitX=0.5;exitY=1;exitDx=0;exitDy=0;entryX=0.25;entryY=0;entryDx=0;entryDy=0;" edge="1" parent="1" source="WjvRyhV9_o4QKFCXP_5M-1" target="IYuZv80g8VhSKte-m324-3">
          <mxGeometry relative="1" as="geometry">
            <mxPoint x="-1216" y="302" as="sourcePoint" />
            <mxPoint x="-1374" y="398" as="targetPoint" />
          </mxGeometry>
        </mxCell>
        <mxCell id="WjvRyhV9_o4QKFCXP_5M-4" value="firstName" style="ellipse;whiteSpace=wrap;html=1;align=center;" vertex="1" parent="1">
          <mxGeometry x="-1448" y="313" width="71" height="23" as="geometry" />
        </mxCell>
        <mxCell id="WjvRyhV9_o4QKFCXP_5M-5" value="lastName" style="ellipse;whiteSpace=wrap;html=1;align=center;" vertex="1" parent="1">
          <mxGeometry x="-1531" y="340" width="80" height="22" as="geometry" />
        </mxCell>
        <mxCell id="WjvRyhV9_o4QKFCXP_5M-6" value="" style="endArrow=none;html=1;rounded=0;exitX=0.5;exitY=1;exitDx=0;exitDy=0;entryX=0.417;entryY=0.067;entryDx=0;entryDy=0;entryPerimeter=0;" edge="1" parent="1" source="WjvRyhV9_o4QKFCXP_5M-4" target="WjvRyhV9_o4QKFCXP_5M-1">
          <mxGeometry relative="1" as="geometry">
            <mxPoint x="-1353" y="321" as="sourcePoint" />
            <mxPoint x="-1394" y="378" as="targetPoint" />
          </mxGeometry>
        </mxCell>
        <mxCell id="WjvRyhV9_o4QKFCXP_5M-8" value="" style="endArrow=none;html=1;rounded=0;entryX=0;entryY=0.5;entryDx=0;entryDy=0;" edge="1" parent="1" source="WjvRyhV9_o4QKFCXP_5M-5" target="WjvRyhV9_o4QKFCXP_5M-1">
          <mxGeometry relative="1" as="geometry">
            <mxPoint x="-1399" y="372" as="sourcePoint" />
            <mxPoint x="-1193" y="321" as="targetPoint" />
          </mxGeometry>
        </mxCell>
        <mxCell id="WjvRyhV9_o4QKFCXP_5M-10" style="edgeStyle=orthogonalEdgeStyle;rounded=0;orthogonalLoop=1;jettySize=auto;html=1;exitX=0.5;exitY=1;exitDx=0;exitDy=0;" edge="1" parent="1">
          <mxGeometry relative="1" as="geometry">
            <mxPoint x="-1512.75" y="477.5" as="sourcePoint" />
            <mxPoint x="-1512.75" y="477.5" as="targetPoint" />
          </mxGeometry>
        </mxCell>
        <mxCell id="WjvRyhV9_o4QKFCXP_5M-13" value="password" style="ellipse;whiteSpace=wrap;html=1;align=center;" vertex="1" parent="1">
          <mxGeometry x="-1132" y="381" width="71" height="23" as="geometry" />
        </mxCell>
        <mxCell id="WjvRyhV9_o4QKFCXP_5M-15" value="" style="endArrow=none;html=1;rounded=0;exitX=0;exitY=1;exitDx=0;exitDy=0;entryX=1;entryY=0;entryDx=0;entryDy=0;" edge="1" parent="1" source="WjvRyhV9_o4QKFCXP_5M-13" target="IYuZv80g8VhSKte-m324-3">
          <mxGeometry width="50" height="50" relative="1" as="geometry">
            <mxPoint x="-1182.653" y="415.678" as="sourcePoint" />
            <mxPoint x="-1290" y="463" as="targetPoint" />
          </mxGeometry>
        </mxCell>
        <mxCell id="WjvRyhV9_o4QKFCXP_5M-16" value="City" style="ellipse;whiteSpace=wrap;html=1;" vertex="1" parent="1">
          <mxGeometry x="-1601.25" y="492" width="63" height="22" as="geometry" />
        </mxCell>
        <mxCell id="WjvRyhV9_o4QKFCXP_5M-17" value="State" style="ellipse;whiteSpace=wrap;html=1;" vertex="1" parent="1">
          <mxGeometry x="-1597.25" y="525.5" width="66" height="18" as="geometry" />
        </mxCell>
        <mxCell id="WjvRyhV9_o4QKFCXP_5M-18" value="Postal code" style="ellipse;whiteSpace=wrap;html=1;" vertex="1" parent="1">
          <mxGeometry x="-1560.25" y="558" width="78" height="25" as="geometry" />
        </mxCell>
        <mxCell id="WjvRyhV9_o4QKFCXP_5M-21" value="" style="endArrow=none;html=1;rounded=0;exitX=1;exitY=0.5;exitDx=0;exitDy=0;" edge="1" parent="1" source="WjvRyhV9_o4QKFCXP_5M-16" target="IYuZv80g8VhSKte-m324-21">
          <mxGeometry width="50" height="50" relative="1" as="geometry">
            <mxPoint x="-1426.25" y="474.5" as="sourcePoint" />
            <mxPoint x="-1374.25" y="488.5" as="targetPoint" />
          </mxGeometry>
        </mxCell>
        <mxCell id="WjvRyhV9_o4QKFCXP_5M-23" value="" style="endArrow=none;html=1;rounded=0;exitX=0.5;exitY=0;exitDx=0;exitDy=0;entryX=0;entryY=1;entryDx=0;entryDy=0;" edge="1" parent="1" source="WjvRyhV9_o4QKFCXP_5M-18" target="IYuZv80g8VhSKte-m324-21">
          <mxGeometry width="50" height="50" relative="1" as="geometry">
            <mxPoint x="-1406.25" y="494.5" as="sourcePoint" />
            <mxPoint x="-1354.25" y="508.5" as="targetPoint" />
          </mxGeometry>
        </mxCell>
        <mxCell id="WjvRyhV9_o4QKFCXP_5M-24" value="" style="endArrow=none;html=1;rounded=0;exitX=0.5;exitY=0;exitDx=0;exitDy=0;entryX=0;entryY=1;entryDx=0;entryDy=0;" edge="1" parent="1" source="IYuZv80g8VhSKte-m324-21" target="IYuZv80g8VhSKte-m324-3">
          <mxGeometry width="50" height="50" relative="1" as="geometry">
            <mxPoint x="-1396.25" y="504.5" as="sourcePoint" />
            <mxPoint x="-1380.75" y="483.5" as="targetPoint" />
          </mxGeometry>
        </mxCell>
        <mxCell id="WjvRyhV9_o4QKFCXP_5M-25" value="email" style="ellipse;whiteSpace=wrap;html=1;" vertex="1" parent="1">
          <mxGeometry x="-1461.25" y="550.5" width="70" height="22" as="geometry" />
        </mxCell>
        <mxCell id="WjvRyhV9_o4QKFCXP_5M-26" value="" style="endArrow=none;html=1;rounded=0;exitX=0.5;exitY=0;exitDx=0;exitDy=0;entryX=0.25;entryY=1;entryDx=0;entryDy=0;" edge="1" parent="1" source="WjvRyhV9_o4QKFCXP_5M-25" target="IYuZv80g8VhSKte-m324-3">
          <mxGeometry width="50" height="50" relative="1" as="geometry">
            <mxPoint x="-1406" y="500" as="sourcePoint" />
            <mxPoint x="-1364" y="480" as="targetPoint" />
          </mxGeometry>
        </mxCell>
        <mxCell id="WjvRyhV9_o4QKFCXP_5M-28" value="dateOfBirth" style="ellipse;whiteSpace=wrap;html=1;align=center;" vertex="1" parent="1">
          <mxGeometry x="-1222" y="538.5" width="71" height="23" as="geometry" />
        </mxCell>
        <mxCell id="WjvRyhV9_o4QKFCXP_5M-29" value="" style="endArrow=none;html=1;rounded=0;exitX=0.5;exitY=0;exitDx=0;exitDy=0;entryX=0.82;entryY=1;entryDx=0;entryDy=0;entryPerimeter=0;" edge="1" parent="1" source="WjvRyhV9_o4QKFCXP_5M-28" target="IYuZv80g8VhSKte-m324-3">
          <mxGeometry width="50" height="50" relative="1" as="geometry">
            <mxPoint x="-1358" y="525" as="sourcePoint" />
            <mxPoint x="-1329" y="472" as="targetPoint" />
          </mxGeometry>
        </mxCell>
        <mxCell id="WjvRyhV9_o4QKFCXP_5M-32" value="" style="endArrow=none;html=1;rounded=0;exitX=1;exitY=0.5;exitDx=0;exitDy=0;entryX=0;entryY=0.5;entryDx=0;entryDy=0;" edge="1" parent="1" source="WjvRyhV9_o4QKFCXP_5M-17" target="IYuZv80g8VhSKte-m324-21">
          <mxGeometry width="50" height="50" relative="1" as="geometry">
            <mxPoint x="-1511.25" y="507.5" as="sourcePoint" />
            <mxPoint x="-1458.25" y="523.5" as="targetPoint" />
          </mxGeometry>
        </mxCell>
        <mxCell id="WjvRyhV9_o4QKFCXP_5M-33" value="age" style="ellipse;whiteSpace=wrap;html=1;align=center;dashed=1;" vertex="1" parent="1">
          <mxGeometry x="-1162.75" y="513" width="90" height="27" as="geometry" />
        </mxCell>
        <mxCell id="WjvRyhV9_o4QKFCXP_5M-34" value="" style="endArrow=none;html=1;rounded=0;exitX=0;exitY=0;exitDx=0;exitDy=0;entryX=1;entryY=1;entryDx=0;entryDy=0;" edge="1" parent="1" source="WjvRyhV9_o4QKFCXP_5M-33" target="IYuZv80g8VhSKte-m324-3">
          <mxGeometry width="50" height="50" relative="1" as="geometry">
            <mxPoint x="-1221" y="542" as="sourcePoint" />
            <mxPoint x="-1256" y="472" as="targetPoint" />
          </mxGeometry>
        </mxCell>
        <mxCell id="4xoYJjt1EuWZ6XjGn5b5-1" value="gender" style="ellipse;whiteSpace=wrap;html=1;align=center;" vertex="1" parent="1">
          <mxGeometry x="-1111" y="487" width="79" height="23.5" as="geometry" />
        </mxCell>
        <mxCell id="4xoYJjt1EuWZ6XjGn5b5-3" value="" style="endArrow=none;html=1;rounded=0;exitX=0;exitY=0.5;exitDx=0;exitDy=0;entryX=1;entryY=0.75;entryDx=0;entryDy=0;" edge="1" parent="1" source="4xoYJjt1EuWZ6XjGn5b5-1" target="IYuZv80g8VhSKte-m324-3">
          <mxGeometry width="50" height="50" relative="1" as="geometry">
            <mxPoint x="-1178" y="518" as="sourcePoint" />
            <mxPoint x="-1233" y="472" as="targetPoint" />
          </mxGeometry>
        </mxCell>
        <mxCell id="4xoYJjt1EuWZ6XjGn5b5-4" value="contactDetails" style="ellipse;shape=doubleEllipse;margin=3;whiteSpace=wrap;html=1;align=center;" vertex="1" parent="1">
          <mxGeometry x="-1635" y="395" width="94" height="32" as="geometry" />
        </mxCell>
        <mxCell id="4xoYJjt1EuWZ6XjGn5b5-6" value="salt" style="ellipse;whiteSpace=wrap;html=1;align=center;" vertex="1" parent="1">
          <mxGeometry x="-1120.5" y="412" width="71" height="23" as="geometry" />
        </mxCell>
        <mxCell id="4xoYJjt1EuWZ6XjGn5b5-8" value="" style="endArrow=none;html=1;rounded=0;exitX=0;exitY=0.5;exitDx=0;exitDy=0;entryX=1;entryY=0.25;entryDx=0;entryDy=0;" edge="1" parent="1" source="4xoYJjt1EuWZ6XjGn5b5-6" target="IYuZv80g8VhSKte-m324-3">
          <mxGeometry width="50" height="50" relative="1" as="geometry">
            <mxPoint x="-1124" y="414" as="sourcePoint" />
            <mxPoint x="-1233" y="445" as="targetPoint" />
          </mxGeometry>
        </mxCell>
        <mxCell id="4xoYJjt1EuWZ6XjGn5b5-9" value="country" style="ellipse;whiteSpace=wrap;html=1;align=center;" vertex="1" parent="1">
          <mxGeometry x="-1207.5" y="319" width="71" height="23" as="geometry" />
        </mxCell>
        <mxCell id="4xoYJjt1EuWZ6XjGn5b5-10" value="" style="endArrow=none;html=1;rounded=0;exitX=0.347;exitY=0.986;exitDx=0;exitDy=0;entryX=0.888;entryY=0.025;entryDx=0;entryDy=0;entryPerimeter=0;exitPerimeter=0;" edge="1" parent="1" source="4xoYJjt1EuWZ6XjGn5b5-9" target="IYuZv80g8VhSKte-m324-3">
          <mxGeometry width="50" height="50" relative="1" as="geometry">
            <mxPoint x="-1198" y="366" as="sourcePoint" />
            <mxPoint x="-1306" y="432" as="targetPoint" />
          </mxGeometry>
        </mxCell>
        <mxCell id="4xoYJjt1EuWZ6XjGn5b5-11" value="isAdmin" style="ellipse;whiteSpace=wrap;html=1;align=center;" vertex="1" parent="1">
          <mxGeometry x="-1267" y="569" width="71" height="23" as="geometry" />
        </mxCell>
        <mxCell id="4xoYJjt1EuWZ6XjGn5b5-12" value="" style="endArrow=none;html=1;rounded=0;exitX=0.5;exitY=0;exitDx=0;exitDy=0;entryX=0.699;entryY=0.963;entryDx=0;entryDy=0;entryPerimeter=0;" edge="1" parent="1" source="4xoYJjt1EuWZ6XjGn5b5-11" target="IYuZv80g8VhSKte-m324-3">
          <mxGeometry width="50" height="50" relative="1" as="geometry">
            <mxPoint x="-1176" y="549" as="sourcePoint" />
            <mxPoint x="-1256" y="472" as="targetPoint" />
          </mxGeometry>
        </mxCell>
        <mxCell id="4xoYJjt1EuWZ6XjGn5b5-13" value="apiKey" style="ellipse;whiteSpace=wrap;html=1;" vertex="1" parent="1">
          <mxGeometry x="-1271" y="342" width="70" height="22" as="geometry" />
        </mxCell>
        <mxCell id="4xoYJjt1EuWZ6XjGn5b5-14" value="" style="endArrow=none;html=1;rounded=0;exitX=0.5;exitY=1;exitDx=0;exitDy=0;entryX=0.75;entryY=0;entryDx=0;entryDy=0;" edge="1" parent="1" source="4xoYJjt1EuWZ6XjGn5b5-13" target="IYuZv80g8VhSKte-m324-3">
          <mxGeometry width="50" height="50" relative="1" as="geometry">
            <mxPoint x="-1173" y="352" as="sourcePoint" />
            <mxPoint x="-1248" y="446" as="targetPoint" />
          </mxGeometry>
        </mxCell>
        <mxCell id="4xoYJjt1EuWZ6XjGn5b5-21" value="director" style="ellipse;whiteSpace=wrap;html=1;" vertex="1" parent="1">
          <mxGeometry x="-1028" y="-688.5" width="84" height="29" as="geometry" />
        </mxCell>
        <mxCell id="4xoYJjt1EuWZ6XjGn5b5-22" value="" style="endArrow=none;html=1;rounded=0;exitX=1;exitY=1;exitDx=0;exitDy=0;entryX=0.083;entryY=0.043;entryDx=0;entryDy=0;entryPerimeter=0;" edge="1" parent="1" source="4xoYJjt1EuWZ6XjGn5b5-21" target="IYuZv80g8VhSKte-m324-1">
          <mxGeometry width="50" height="50" relative="1" as="geometry">
            <mxPoint x="-961" y="-591" as="sourcePoint" />
            <mxPoint x="-849" y="-572" as="targetPoint" />
          </mxGeometry>
        </mxCell>
        <mxCell id="4xoYJjt1EuWZ6XjGn5b5-24" value="cast" style="ellipse;whiteSpace=wrap;html=1;" vertex="1" parent="1">
          <mxGeometry x="-637" y="-482.5" width="82" height="27" as="geometry" />
        </mxCell>
        <mxCell id="4xoYJjt1EuWZ6XjGn5b5-25" value="" style="endArrow=none;html=1;rounded=0;exitX=0;exitY=0;exitDx=0;exitDy=0;entryX=1;entryY=1;entryDx=0;entryDy=0;" edge="1" parent="1" source="4xoYJjt1EuWZ6XjGn5b5-24" target="IYuZv80g8VhSKte-m324-1">
          <mxGeometry width="50" height="50" relative="1" as="geometry">
            <mxPoint x="-956" y="-524" as="sourcePoint" />
            <mxPoint x="-849" y="-552" as="targetPoint" />
          </mxGeometry>
        </mxCell>
        <mxCell id="4xoYJjt1EuWZ6XjGn5b5-27" value="lead" style="ellipse;whiteSpace=wrap;html=1;" vertex="1" parent="1">
          <mxGeometry x="-565" y="-436.5" width="82" height="27" as="geometry" />
        </mxCell>
        <mxCell id="4xoYJjt1EuWZ6XjGn5b5-28" value="supporting" style="ellipse;whiteSpace=wrap;html=1;" vertex="1" parent="1">
          <mxGeometry x="-538" y="-467.5" width="82" height="27" as="geometry" />
        </mxCell>
        <mxCell id="4xoYJjt1EuWZ6XjGn5b5-29" value="" style="endArrow=none;html=1;rounded=0;exitX=0;exitY=0;exitDx=0;exitDy=0;" edge="1" parent="1" source="4xoYJjt1EuWZ6XjGn5b5-27" target="4xoYJjt1EuWZ6XjGn5b5-24">
          <mxGeometry width="50" height="50" relative="1" as="geometry">
            <mxPoint x="-615" y="-468.5" as="sourcePoint" />
            <mxPoint x="-663" y="-506.5" as="targetPoint" />
          </mxGeometry>
        </mxCell>
        <mxCell id="4xoYJjt1EuWZ6XjGn5b5-30" value="" style="endArrow=none;html=1;rounded=0;entryX=1;entryY=0.5;entryDx=0;entryDy=0;exitX=0;exitY=0.5;exitDx=0;exitDy=0;" edge="1" parent="1" source="4xoYJjt1EuWZ6XjGn5b5-28" target="4xoYJjt1EuWZ6XjGn5b5-24">
          <mxGeometry width="50" height="50" relative="1" as="geometry">
            <mxPoint x="-537" y="-460" as="sourcePoint" />
            <mxPoint x="-663" y="-506.5" as="targetPoint" />
          </mxGeometry>
        </mxCell>
        <mxCell id="4xoYJjt1EuWZ6XjGn5b5-31" value="extras" style="ellipse;whiteSpace=wrap;html=1;" vertex="1" parent="1">
          <mxGeometry x="-538" y="-501.5" width="82" height="27" as="geometry" />
        </mxCell>
        <mxCell id="4xoYJjt1EuWZ6XjGn5b5-33" value="" style="endArrow=none;html=1;rounded=0;exitX=0;exitY=0.5;exitDx=0;exitDy=0;entryX=1;entryY=0;entryDx=0;entryDy=0;" edge="1" parent="1" source="4xoYJjt1EuWZ6XjGn5b5-31" target="4xoYJjt1EuWZ6XjGn5b5-24">
          <mxGeometry width="50" height="50" relative="1" as="geometry">
            <mxPoint x="-615" y="-468.5" as="sourcePoint" />
            <mxPoint x="-663" y="-506.5" as="targetPoint" />
          </mxGeometry>
        </mxCell>
        <mxCell id="4xoYJjt1EuWZ6XjGn5b5-34" value="plot" style="ellipse;whiteSpace=wrap;html=1;" vertex="1" parent="1">
          <mxGeometry x="-1059.5" y="-512" width="58.5" height="22" as="geometry" />
        </mxCell>
        <mxCell id="4xoYJjt1EuWZ6XjGn5b5-35" value="" style="endArrow=none;html=1;rounded=0;exitX=0.5;exitY=0;exitDx=0;exitDy=0;entryX=0;entryY=1;entryDx=0;entryDy=0;" edge="1" parent="1" source="4xoYJjt1EuWZ6XjGn5b5-34" target="IYuZv80g8VhSKte-m324-1">
          <mxGeometry width="50" height="50" relative="1" as="geometry">
            <mxPoint x="-950" y="-509" as="sourcePoint" />
            <mxPoint x="-849" y="-552" as="targetPoint" />
          </mxGeometry>
        </mxCell>
        <mxCell id="4xoYJjt1EuWZ6XjGn5b5-36" value="rating" style="ellipse;whiteSpace=wrap;html=1;" vertex="1" parent="1">
          <mxGeometry x="-996" y="-442" width="76" height="22" as="geometry" />
        </mxCell>
        <mxCell id="4xoYJjt1EuWZ6XjGn5b5-37" value="" style="endArrow=none;html=1;rounded=0;entryX=0.066;entryY=1.051;entryDx=0;entryDy=0;entryPerimeter=0;" edge="1" parent="1" target="IYuZv80g8VhSKte-m324-1">
          <mxGeometry width="50" height="50" relative="1" as="geometry">
            <mxPoint x="-954" y="-442" as="sourcePoint" />
            <mxPoint x="-849" y="-546" as="targetPoint" />
          </mxGeometry>
        </mxCell>
        <mxCell id="4xoYJjt1EuWZ6XjGn5b5-38" value="duration" style="ellipse;whiteSpace=wrap;html=1;" vertex="1" parent="1">
          <mxGeometry x="-659" y="-696" width="60" height="21" as="geometry" />
        </mxCell>
        <mxCell id="4xoYJjt1EuWZ6XjGn5b5-39" value="" style="endArrow=none;html=1;rounded=0;exitX=0;exitY=1;exitDx=0;exitDy=0;entryX=0.849;entryY=0.049;entryDx=0;entryDy=0;entryPerimeter=0;" edge="1" parent="1" source="4xoYJjt1EuWZ6XjGn5b5-38" target="IYuZv80g8VhSKte-m324-1">
          <mxGeometry width="50" height="50" relative="1" as="geometry">
            <mxPoint x="-701" y="-653" as="sourcePoint" />
            <mxPoint x="-767" y="-581" as="targetPoint" />
          </mxGeometry>
        </mxCell>
        <mxCell id="4xoYJjt1EuWZ6XjGn5b5-41" value="language" style="ellipse;whiteSpace=wrap;html=1;" vertex="1" parent="1">
          <mxGeometry x="-650" y="-667" width="60" height="21" as="geometry" />
        </mxCell>
        <mxCell id="4xoYJjt1EuWZ6XjGn5b5-42" value="" style="endArrow=none;html=1;rounded=0;exitX=0;exitY=1;exitDx=0;exitDy=0;entryX=1;entryY=0;entryDx=0;entryDy=0;" edge="1" parent="1" source="4xoYJjt1EuWZ6XjGn5b5-41" target="IYuZv80g8VhSKte-m324-1">
          <mxGeometry width="50" height="50" relative="1" as="geometry">
            <mxPoint x="-640" y="-668" as="sourcePoint" />
            <mxPoint x="-748" y="-571" as="targetPoint" />
          </mxGeometry>
        </mxCell>
        <mxCell id="4xoYJjt1EuWZ6XjGn5b5-43" value="country" style="ellipse;whiteSpace=wrap;html=1;" vertex="1" parent="1">
          <mxGeometry x="-641" y="-423.5" width="60" height="21" as="geometry" />
        </mxCell>
        <mxCell id="4xoYJjt1EuWZ6XjGn5b5-44" value="" style="endArrow=none;html=1;rounded=0;exitX=0.5;exitY=0;exitDx=0;exitDy=0;entryX=0.939;entryY=1.002;entryDx=0;entryDy=0;entryPerimeter=0;" edge="1" parent="1" source="4xoYJjt1EuWZ6XjGn5b5-43" target="IYuZv80g8VhSKte-m324-1">
          <mxGeometry width="50" height="50" relative="1" as="geometry">
            <mxPoint x="-681" y="-508" as="sourcePoint" />
            <mxPoint x="-729" y="-546" as="targetPoint" />
          </mxGeometry>
        </mxCell>
        <mxCell id="4xoYJjt1EuWZ6XjGn5b5-45" value="productionCompany" style="ellipse;whiteSpace=wrap;html=1;" vertex="1" parent="1">
          <mxGeometry x="-1070" y="-483" width="110.75" height="41" as="geometry" />
        </mxCell>
        <mxCell id="4xoYJjt1EuWZ6XjGn5b5-46" value="" style="endArrow=none;html=1;rounded=0;exitX=0.579;exitY=0.048;exitDx=0;exitDy=0;entryX=0;entryY=1;entryDx=0;entryDy=0;exitPerimeter=0;" edge="1" parent="1" source="4xoYJjt1EuWZ6XjGn5b5-45" target="IYuZv80g8VhSKte-m324-1">
          <mxGeometry width="50" height="50" relative="1" as="geometry">
            <mxPoint x="-1020" y="-502" as="sourcePoint" />
            <mxPoint x="-849" y="-546" as="targetPoint" />
          </mxGeometry>
        </mxCell>
        <mxCell id="4xoYJjt1EuWZ6XjGn5b5-48" value="" style="endArrow=none;html=1;rounded=0;exitX=0;exitY=0.5;exitDx=0;exitDy=0;entryX=1;entryY=0.25;entryDx=0;entryDy=0;" edge="1" parent="1" target="IYuZv80g8VhSKte-m324-1">
          <mxGeometry width="50" height="50" relative="1" as="geometry">
            <mxPoint x="-619.999999999998" y="-625.5000000000002" as="sourcePoint" />
            <mxPoint x="-729" y="-572" as="targetPoint" />
          </mxGeometry>
        </mxCell>
        <mxCell id="4xoYJjt1EuWZ6XjGn5b5-49" value="userRatings" style="ellipse;whiteSpace=wrap;html=1;" vertex="1" parent="1">
          <mxGeometry x="-921" y="-712" width="74" height="27" as="geometry" />
        </mxCell>
        <mxCell id="4xoYJjt1EuWZ6XjGn5b5-50" value="" style="endArrow=none;html=1;rounded=0;exitX=0.7;exitY=0.906;exitDx=0;exitDy=0;entryX=0.25;entryY=0;entryDx=0;entryDy=0;exitPerimeter=0;" edge="1" parent="1" source="4xoYJjt1EuWZ6XjGn5b5-49" target="IYuZv80g8VhSKte-m324-1">
          <mxGeometry width="50" height="50" relative="1" as="geometry">
            <mxPoint x="-895" y="-646" as="sourcePoint" />
            <mxPoint x="-819" y="-572" as="targetPoint" />
          </mxGeometry>
        </mxCell>
        <mxCell id="4xoYJjt1EuWZ6XjGn5b5-51" value="reviews" style="ellipse;shape=doubleEllipse;margin=3;whiteSpace=wrap;html=1;align=center;" vertex="1" parent="1">
          <mxGeometry x="-622" y="-644" width="78" height="29" as="geometry" />
        </mxCell>
        <mxCell id="4xoYJjt1EuWZ6XjGn5b5-53" value="creator" style="ellipse;whiteSpace=wrap;html=1;" vertex="1" parent="1">
          <mxGeometry x="136.75" y="652" width="77.75" height="29" as="geometry" />
        </mxCell>
        <mxCell id="4xoYJjt1EuWZ6XjGn5b5-54" value="" style="endArrow=none;html=1;rounded=0;exitX=0.25;exitY=1;exitDx=0;exitDy=0;" edge="1" parent="1" source="IYuZv80g8VhSKte-m324-2" target="4xoYJjt1EuWZ6XjGn5b5-53">
          <mxGeometry width="50" height="50" relative="1" as="geometry">
            <mxPoint x="103" y="436" as="sourcePoint" />
            <mxPoint x="41" y="380" as="targetPoint" />
          </mxGeometry>
        </mxCell>
        <mxCell id="4xoYJjt1EuWZ6XjGn5b5-56" value="productionCompany" style="ellipse;whiteSpace=wrap;html=1;" vertex="1" parent="1">
          <mxGeometry x="310.75" y="277" width="120" height="30" as="geometry" />
        </mxCell>
        <mxCell id="4xoYJjt1EuWZ6XjGn5b5-57" value="" style="endArrow=none;html=1;rounded=0;entryX=0.03;entryY=0.747;entryDx=0;entryDy=0;entryPerimeter=0;exitX=1;exitY=0.25;exitDx=0;exitDy=0;" edge="1" parent="1" source="IYuZv80g8VhSKte-m324-2">
          <mxGeometry width="50" height="50" relative="1" as="geometry">
            <mxPoint x="241" y="444" as="sourcePoint" />
            <mxPoint x="351.60000000000036" y="308.90999999999985" as="targetPoint" />
          </mxGeometry>
        </mxCell>
        <mxCell id="4xoYJjt1EuWZ6XjGn5b5-58" value="cast" style="ellipse;whiteSpace=wrap;html=1;" vertex="1" parent="1">
          <mxGeometry x="-37" y="491" width="66" height="22" as="geometry" />
        </mxCell>
        <mxCell id="4xoYJjt1EuWZ6XjGn5b5-59" value="" style="endArrow=none;html=1;rounded=0;entryX=1;entryY=0;entryDx=0;entryDy=0;exitX=0;exitY=0.75;exitDx=0;exitDy=0;" edge="1" parent="1" source="IYuZv80g8VhSKte-m324-2" target="4xoYJjt1EuWZ6XjGn5b5-58">
          <mxGeometry width="50" height="50" relative="1" as="geometry">
            <mxPoint x="121" y="470" as="sourcePoint" />
            <mxPoint x="7" y="555" as="targetPoint" />
          </mxGeometry>
        </mxCell>
        <mxCell id="4xoYJjt1EuWZ6XjGn5b5-61" value="plot" style="ellipse;whiteSpace=wrap;html=1;" vertex="1" parent="1">
          <mxGeometry x="344" y="542" width="79" height="22" as="geometry" />
        </mxCell>
        <mxCell id="4xoYJjt1EuWZ6XjGn5b5-62" value="" style="endArrow=none;html=1;rounded=0;exitX=0;exitY=0.5;exitDx=0;exitDy=0;entryX=1;entryY=0.75;entryDx=0;entryDy=0;" edge="1" parent="1" source="4xoYJjt1EuWZ6XjGn5b5-61" target="IYuZv80g8VhSKte-m324-2">
          <mxGeometry width="50" height="50" relative="1" as="geometry">
            <mxPoint x="323" y="555" as="sourcePoint" />
            <mxPoint x="241" y="470" as="targetPoint" />
          </mxGeometry>
        </mxCell>
        <mxCell id="4xoYJjt1EuWZ6XjGn5b5-63" value="lead" style="ellipse;whiteSpace=wrap;html=1;" vertex="1" parent="1">
          <mxGeometry x="-169" y="478" width="82" height="27" as="geometry" />
        </mxCell>
        <mxCell id="4xoYJjt1EuWZ6XjGn5b5-64" value="supporting" style="ellipse;whiteSpace=wrap;html=1;" vertex="1" parent="1">
          <mxGeometry x="-164" y="513" width="82" height="27" as="geometry" />
        </mxCell>
        <mxCell id="4xoYJjt1EuWZ6XjGn5b5-65" value="recurring" style="ellipse;whiteSpace=wrap;html=1;" vertex="1" parent="1">
          <mxGeometry x="-105" y="548" width="82" height="27" as="geometry" />
        </mxCell>
        <mxCell id="4xoYJjt1EuWZ6XjGn5b5-66" value="" style="endArrow=none;html=1;rounded=0;exitX=0;exitY=0;exitDx=0;exitDy=0;entryX=1;entryY=0.5;entryDx=0;entryDy=0;" edge="1" parent="1" source="4xoYJjt1EuWZ6XjGn5b5-58" target="4xoYJjt1EuWZ6XjGn5b5-63">
          <mxGeometry width="50" height="50" relative="1" as="geometry">
            <mxPoint x="121" y="464" as="sourcePoint" />
            <mxPoint x="-94" y="491" as="targetPoint" />
          </mxGeometry>
        </mxCell>
        <mxCell id="4xoYJjt1EuWZ6XjGn5b5-67" value="" style="endArrow=none;html=1;rounded=0;entryX=1;entryY=0.5;entryDx=0;entryDy=0;exitX=0.047;exitY=0.5;exitDx=0;exitDy=0;exitPerimeter=0;" edge="1" parent="1" source="4xoYJjt1EuWZ6XjGn5b5-58" target="4xoYJjt1EuWZ6XjGn5b5-64">
          <mxGeometry width="50" height="50" relative="1" as="geometry">
            <mxPoint x="-52" y="524" as="sourcePoint" />
            <mxPoint x="-88" y="511" as="targetPoint" />
          </mxGeometry>
        </mxCell>
        <mxCell id="4xoYJjt1EuWZ6XjGn5b5-68" value="" style="endArrow=none;html=1;rounded=0;" edge="1" parent="1" source="4xoYJjt1EuWZ6XjGn5b5-58" target="4xoYJjt1EuWZ6XjGn5b5-65">
          <mxGeometry width="50" height="50" relative="1" as="geometry">
            <mxPoint x="-58" y="532" as="sourcePoint" />
            <mxPoint x="-92" y="556" as="targetPoint" />
          </mxGeometry>
        </mxCell>
        <mxCell id="4xoYJjt1EuWZ6XjGn5b5-72" value="rating" style="ellipse;whiteSpace=wrap;html=1;" vertex="1" parent="1">
          <mxGeometry x="246" y="567" width="79" height="22" as="geometry" />
        </mxCell>
        <mxCell id="4xoYJjt1EuWZ6XjGn5b5-73" value="" style="endArrow=none;html=1;rounded=0;exitX=0.5;exitY=0;exitDx=0;exitDy=0;entryX=0.894;entryY=0.987;entryDx=0;entryDy=0;entryPerimeter=0;" edge="1" parent="1" source="4xoYJjt1EuWZ6XjGn5b5-72" target="IYuZv80g8VhSKte-m324-2">
          <mxGeometry width="50" height="50" relative="1" as="geometry">
            <mxPoint x="323" y="555" as="sourcePoint" />
            <mxPoint x="241" y="470" as="targetPoint" />
          </mxGeometry>
        </mxCell>
        <mxCell id="4xoYJjt1EuWZ6XjGn5b5-74" value="seasons" style="ellipse;whiteSpace=wrap;html=1;" vertex="1" parent="1">
          <mxGeometry x="16.75" y="663" width="77.75" height="29" as="geometry" />
        </mxCell>
        <mxCell id="4xoYJjt1EuWZ6XjGn5b5-75" value="" style="endArrow=none;html=1;rounded=0;exitX=0.14;exitY=1.015;exitDx=0;exitDy=0;exitPerimeter=0;" edge="1" parent="1" source="IYuZv80g8VhSKte-m324-2" target="4xoYJjt1EuWZ6XjGn5b5-74">
          <mxGeometry width="50" height="50" relative="1" as="geometry">
            <mxPoint x="121" y="451" as="sourcePoint" />
            <mxPoint y="398" as="targetPoint" />
          </mxGeometry>
        </mxCell>
        <mxCell id="4xoYJjt1EuWZ6XjGn5b5-76" value="episodes" style="ellipse;whiteSpace=wrap;html=1;" vertex="1" parent="1">
          <mxGeometry x="191.75" y="679" width="77.75" height="29" as="geometry" />
        </mxCell>
        <mxCell id="4xoYJjt1EuWZ6XjGn5b5-77" value="" style="endArrow=none;html=1;rounded=0;entryX=0.5;entryY=0;entryDx=0;entryDy=0;" edge="1" parent="1" source="IYuZv80g8VhSKte-m324-2" target="4xoYJjt1EuWZ6XjGn5b5-76">
          <mxGeometry width="50" height="50" relative="1" as="geometry">
            <mxPoint x="121" y="451" as="sourcePoint" />
            <mxPoint x="214.75" y="762" as="targetPoint" />
          </mxGeometry>
        </mxCell>
        <mxCell id="4xoYJjt1EuWZ6XjGn5b5-78" style="edgeStyle=orthogonalEdgeStyle;rounded=0;orthogonalLoop=1;jettySize=auto;html=1;exitX=0.5;exitY=1;exitDx=0;exitDy=0;" edge="1" parent="1" source="IYuZv80g8VhSKte-m324-10" target="IYuZv80g8VhSKte-m324-10">
          <mxGeometry relative="1" as="geometry" />
        </mxCell>
        <mxCell id="4xoYJjt1EuWZ6XjGn5b5-79" value="duration" style="ellipse;whiteSpace=wrap;html=1;" vertex="1" parent="1">
          <mxGeometry x="344" y="327" width="79" height="22" as="geometry" />
        </mxCell>
        <mxCell id="4xoYJjt1EuWZ6XjGn5b5-80" value="" style="endArrow=none;html=1;rounded=0;exitX=0;exitY=1;exitDx=0;exitDy=0;entryX=1;entryY=0.5;entryDx=0;entryDy=0;" edge="1" parent="1" source="4xoYJjt1EuWZ6XjGn5b5-79" target="IYuZv80g8VhSKte-m324-2">
          <mxGeometry width="50" height="50" relative="1" as="geometry">
            <mxPoint x="338" y="532" as="sourcePoint" />
            <mxPoint x="241" y="464" as="targetPoint" />
          </mxGeometry>
        </mxCell>
        <mxCell id="4xoYJjt1EuWZ6XjGn5b5-81" value="language" style="ellipse;whiteSpace=wrap;html=1;" vertex="1" parent="1">
          <mxGeometry x="365" y="507" width="79" height="22" as="geometry" />
        </mxCell>
        <mxCell id="4xoYJjt1EuWZ6XjGn5b5-82" value="" style="endArrow=none;html=1;rounded=0;exitX=0;exitY=0.5;exitDx=0;exitDy=0;entryX=1;entryY=0.75;entryDx=0;entryDy=0;" edge="1" parent="1" source="4xoYJjt1EuWZ6XjGn5b5-81" target="IYuZv80g8VhSKte-m324-2">
          <mxGeometry width="50" height="50" relative="1" as="geometry">
            <mxPoint x="354" y="563" as="sourcePoint" />
            <mxPoint x="241" y="464" as="targetPoint" />
          </mxGeometry>
        </mxCell>
        <mxCell id="4xoYJjt1EuWZ6XjGn5b5-83" value="country" style="ellipse;whiteSpace=wrap;html=1;" vertex="1" parent="1">
          <mxGeometry x="223" y="271" width="79" height="22" as="geometry" />
        </mxCell>
        <mxCell id="4xoYJjt1EuWZ6XjGn5b5-84" value="" style="endArrow=none;html=1;rounded=0;entryX=0;entryY=1;entryDx=0;entryDy=0;exitX=0.871;exitY=-0.004;exitDx=0;exitDy=0;exitPerimeter=0;" edge="1" parent="1" source="IYuZv80g8VhSKte-m324-2" target="4xoYJjt1EuWZ6XjGn5b5-83">
          <mxGeometry width="50" height="50" relative="1" as="geometry">
            <mxPoint x="241" y="444" as="sourcePoint" />
            <mxPoint x="274" y="350" as="targetPoint" />
          </mxGeometry>
        </mxCell>
        <mxCell id="4xoYJjt1EuWZ6XjGn5b5-86" value="" style="endArrow=none;html=1;rounded=0;entryX=0.63;entryY=0.053;entryDx=0;entryDy=0;exitX=0.096;exitY=1.077;exitDx=0;exitDy=0;exitPerimeter=0;entryPerimeter=0;" edge="1" parent="1" source="IYuZv80g8VhSKte-m324-2">
          <mxGeometry width="50" height="50" relative="1" as="geometry">
            <mxPoint x="121" y="470" as="sourcePoint" />
            <mxPoint x="30.8100000000004" y="590.3250000000003" as="targetPoint" />
          </mxGeometry>
        </mxCell>
        <mxCell id="4xoYJjt1EuWZ6XjGn5b5-87" value="userRatings" style="ellipse;whiteSpace=wrap;html=1;" vertex="1" parent="1">
          <mxGeometry x="217.75" y="606" width="77.75" height="29" as="geometry" />
        </mxCell>
        <mxCell id="4xoYJjt1EuWZ6XjGn5b5-88" value="" style="endArrow=none;html=1;rounded=0;entryX=0.5;entryY=0;entryDx=0;entryDy=0;exitX=0.75;exitY=1;exitDx=0;exitDy=0;" edge="1" parent="1" source="IYuZv80g8VhSKte-m324-2" target="4xoYJjt1EuWZ6XjGn5b5-87">
          <mxGeometry width="50" height="50" relative="1" as="geometry">
            <mxPoint x="130" y="446" as="sourcePoint" />
            <mxPoint x="71" y="342" as="targetPoint" />
          </mxGeometry>
        </mxCell>
        <mxCell id="4xoYJjt1EuWZ6XjGn5b5-89" value="firstName" style="ellipse;whiteSpace=wrap;html=1;" vertex="1" parent="1">
          <mxGeometry x="-699.75" y="313" width="74" height="22" as="geometry" />
        </mxCell>
        <mxCell id="4xoYJjt1EuWZ6XjGn5b5-90" value="" style="endArrow=none;html=1;rounded=0;exitX=1;exitY=0.5;exitDx=0;exitDy=0;entryX=0;entryY=0.5;entryDx=0;entryDy=0;" edge="1" parent="1" source="4xoYJjt1EuWZ6XjGn5b5-89" target="IYuZv80g8VhSKte-m324-28">
          <mxGeometry width="50" height="50" relative="1" as="geometry">
            <mxPoint x="-537.5" y="325" as="sourcePoint" />
            <mxPoint x="-500.5" y="288" as="targetPoint" />
          </mxGeometry>
        </mxCell>
        <mxCell id="4xoYJjt1EuWZ6XjGn5b5-93" value="lastName" style="ellipse;whiteSpace=wrap;html=1;" vertex="1" parent="1">
          <mxGeometry x="-657.25" y="348" width="74" height="22" as="geometry" />
        </mxCell>
        <mxCell id="4xoYJjt1EuWZ6XjGn5b5-94" value="" style="endArrow=none;html=1;rounded=0;exitX=0.5;exitY=0;exitDx=0;exitDy=0;entryX=0.5;entryY=1;entryDx=0;entryDy=0;" edge="1" parent="1" source="4xoYJjt1EuWZ6XjGn5b5-93" target="IYuZv80g8VhSKte-m324-28">
          <mxGeometry width="50" height="50" relative="1" as="geometry">
            <mxPoint x="-648.5" y="337" as="sourcePoint" />
            <mxPoint x="-626.5" y="325" as="targetPoint" />
          </mxGeometry>
        </mxCell>
        <mxCell id="4xoYJjt1EuWZ6XjGn5b5-95" value="dateOfBirth" style="ellipse;whiteSpace=wrap;html=1;" vertex="1" parent="1">
          <mxGeometry x="-355.5" y="194" width="89" height="27.5" as="geometry" />
        </mxCell>
        <mxCell id="4xoYJjt1EuWZ6XjGn5b5-97" value="age" style="ellipse;whiteSpace=wrap;html=1;align=center;dashed=1;" vertex="1" parent="1">
          <mxGeometry x="-351.25" y="335" width="100.75" height="35" as="geometry" />
        </mxCell>
        <mxCell id="4xoYJjt1EuWZ6XjGn5b5-98" value="" style="endArrow=none;html=1;rounded=0;exitX=1;exitY=1;exitDx=0;exitDy=0;entryX=0;entryY=0;entryDx=0;entryDy=0;" edge="1" parent="1" source="IYuZv80g8VhSKte-m324-26" target="4xoYJjt1EuWZ6XjGn5b5-97">
          <mxGeometry width="50" height="50" relative="1" as="geometry">
            <mxPoint x="-565.5" y="221" as="sourcePoint" />
            <mxPoint x="-500.5" y="275" as="targetPoint" />
          </mxGeometry>
        </mxCell>
        <mxCell id="4xoYJjt1EuWZ6XjGn5b5-99" value="" style="endArrow=none;html=1;rounded=0;exitX=0;exitY=1;exitDx=0;exitDy=0;entryX=1;entryY=0;entryDx=0;entryDy=0;" edge="1" parent="1" source="4xoYJjt1EuWZ6XjGn5b5-95" target="IYuZv80g8VhSKte-m324-26">
          <mxGeometry width="50" height="50" relative="1" as="geometry">
            <mxPoint x="-380.5" y="294" as="sourcePoint" />
            <mxPoint x="-326.5" y="350" as="targetPoint" />
          </mxGeometry>
        </mxCell>
        <mxCell id="4xoYJjt1EuWZ6XjGn5b5-100" value="gender" style="ellipse;whiteSpace=wrap;html=1;align=center;" vertex="1" parent="1">
          <mxGeometry x="-293" y="308" width="79" height="23.5" as="geometry" />
        </mxCell>
        <mxCell id="4xoYJjt1EuWZ6XjGn5b5-101" value="" style="endArrow=none;html=1;rounded=0;exitX=1;exitY=0.75;exitDx=0;exitDy=0;entryX=0;entryY=0.5;entryDx=0;entryDy=0;" edge="1" parent="1" source="IYuZv80g8VhSKte-m324-26" target="4xoYJjt1EuWZ6XjGn5b5-100">
          <mxGeometry width="50" height="50" relative="1" as="geometry">
            <mxPoint x="-380.5" y="294" as="sourcePoint" />
            <mxPoint x="-327.5" y="350" as="targetPoint" />
          </mxGeometry>
        </mxCell>
        <mxCell id="4xoYJjt1EuWZ6XjGn5b5-102" value="CAST" style="shape=ext;margin=3;double=1;whiteSpace=wrap;html=1;align=center;" vertex="1" parent="1">
          <mxGeometry x="-368.25" y="-308.5" width="100" height="40" as="geometry" />
        </mxCell>
        <mxCell id="4xoYJjt1EuWZ6XjGn5b5-103" value="movieID/seriesID" style="ellipse;whiteSpace=wrap;html=1;align=center;" vertex="1" parent="1">
          <mxGeometry x="-514" y="-365.5" width="100" height="40" as="geometry" />
        </mxCell>
        <mxCell id="4xoYJjt1EuWZ6XjGn5b5-104" value="" style="endArrow=none;html=1;rounded=0;entryX=0;entryY=0;entryDx=0;entryDy=0;exitX=1;exitY=1;exitDx=0;exitDy=0;" edge="1" parent="1" source="4xoYJjt1EuWZ6XjGn5b5-103" target="4xoYJjt1EuWZ6XjGn5b5-102">
          <mxGeometry relative="1" as="geometry">
            <mxPoint x="-487" y="-352.5" as="sourcePoint" />
            <mxPoint x="-327" y="-352.5" as="targetPoint" />
          </mxGeometry>
        </mxCell>
        <mxCell id="4xoYJjt1EuWZ6XjGn5b5-105" value="actorID" style="ellipse;whiteSpace=wrap;html=1;align=center;" vertex="1" parent="1">
          <mxGeometry x="-518" y="-221.5" width="100" height="40" as="geometry" />
        </mxCell>
        <mxCell id="4xoYJjt1EuWZ6XjGn5b5-106" value="" style="endArrow=none;html=1;rounded=0;entryX=0;entryY=1;entryDx=0;entryDy=0;exitX=1;exitY=0;exitDx=0;exitDy=0;" edge="1" parent="1" source="4xoYJjt1EuWZ6XjGn5b5-105" target="4xoYJjt1EuWZ6XjGn5b5-102">
          <mxGeometry relative="1" as="geometry">
            <mxPoint x="-442" y="-357.5" as="sourcePoint" />
            <mxPoint x="-358" y="-298.5" as="targetPoint" />
          </mxGeometry>
        </mxCell>
        <mxCell id="4xoYJjt1EuWZ6XjGn5b5-107" value="role" style="ellipse;whiteSpace=wrap;html=1;align=center;" vertex="1" parent="1">
          <mxGeometry x="-225" y="-380.5" width="100" height="40" as="geometry" />
        </mxCell>
        <mxCell id="4xoYJjt1EuWZ6XjGn5b5-108" value="" style="endArrow=none;html=1;rounded=0;entryX=0;entryY=1;entryDx=0;entryDy=0;exitX=1;exitY=0.25;exitDx=0;exitDy=0;" edge="1" parent="1" source="4xoYJjt1EuWZ6XjGn5b5-102" target="4xoYJjt1EuWZ6XjGn5b5-107">
          <mxGeometry relative="1" as="geometry">
            <mxPoint x="-442" y="-357.5" as="sourcePoint" />
            <mxPoint x="-358" y="-298.5" as="targetPoint" />
          </mxGeometry>
        </mxCell>
        <mxCell id="4xoYJjt1EuWZ6XjGn5b5-109" value="billingOrder" style="ellipse;whiteSpace=wrap;html=1;align=center;" vertex="1" parent="1">
          <mxGeometry x="-214" y="-218.5" width="100" height="40" as="geometry" />
        </mxCell>
        <mxCell id="4xoYJjt1EuWZ6XjGn5b5-110" value="" style="endArrow=none;html=1;rounded=0;entryX=0;entryY=0;entryDx=0;entryDy=0;exitX=1;exitY=1;exitDx=0;exitDy=0;" edge="1" parent="1" source="4xoYJjt1EuWZ6XjGn5b5-102" target="4xoYJjt1EuWZ6XjGn5b5-109">
          <mxGeometry relative="1" as="geometry">
            <mxPoint x="-258" y="-288.5" as="sourcePoint" />
            <mxPoint x="-200" y="-336.5" as="targetPoint" />
          </mxGeometry>
        </mxCell>
        <mxCell id="4xoYJjt1EuWZ6XjGn5b5-111" value="PRODUCTION_COMPANY" style="whiteSpace=wrap;html=1;align=center;" vertex="1" parent="1">
          <mxGeometry x="73.00000000000011" y="-871" width="177" height="48" as="geometry" />
        </mxCell>
        <mxCell id="4xoYJjt1EuWZ6XjGn5b5-112" value="companyID" style="ellipse;whiteSpace=wrap;html=1;align=center;fontStyle=4;" vertex="1" parent="1">
          <mxGeometry x="-94.99999999999989" y="-938" width="124" height="40" as="geometry" />
        </mxCell>
        <mxCell id="4xoYJjt1EuWZ6XjGn5b5-113" value="" style="endArrow=none;html=1;rounded=0;entryX=0;entryY=0.25;entryDx=0;entryDy=0;exitX=0.756;exitY=0.894;exitDx=0;exitDy=0;exitPerimeter=0;" edge="1" parent="1" source="4xoYJjt1EuWZ6XjGn5b5-112" target="4xoYJjt1EuWZ6XjGn5b5-111">
          <mxGeometry relative="1" as="geometry">
            <mxPoint x="11.000000000000114" y="-390" as="sourcePoint" />
            <mxPoint x="68.00000000000011" y="-438" as="targetPoint" />
          </mxGeometry>
        </mxCell>
        <mxCell id="4xoYJjt1EuWZ6XjGn5b5-114" value="name" style="ellipse;whiteSpace=wrap;html=1;align=center;" vertex="1" parent="1">
          <mxGeometry x="281.0000000000002" y="-971" width="80" height="30" as="geometry" />
        </mxCell>
        <mxCell id="4xoYJjt1EuWZ6XjGn5b5-115" value="" style="endArrow=none;html=1;rounded=0;entryX=0;entryY=1;entryDx=0;entryDy=0;exitX=0.932;exitY=0;exitDx=0;exitDy=0;exitPerimeter=0;" edge="1" parent="1" source="4xoYJjt1EuWZ6XjGn5b5-111" target="4xoYJjt1EuWZ6XjGn5b5-114">
          <mxGeometry relative="1" as="geometry">
            <mxPoint x="30.000000000000114" y="-817" as="sourcePoint" />
            <mxPoint x="87.00000000000011" y="-758" as="targetPoint" />
          </mxGeometry>
        </mxCell>
        <mxCell id="4xoYJjt1EuWZ6XjGn5b5-116" value="headquarters" style="ellipse;whiteSpace=wrap;html=1;align=center;" vertex="1" parent="1">
          <mxGeometry x="-34.999999999999886" y="-786" width="98" height="33" as="geometry" />
        </mxCell>
        <mxCell id="4xoYJjt1EuWZ6XjGn5b5-117" value="" style="endArrow=none;html=1;rounded=0;entryX=0.647;entryY=0.05;entryDx=0;entryDy=0;exitX=0;exitY=1;exitDx=0;exitDy=0;entryPerimeter=0;" edge="1" parent="1" source="4xoYJjt1EuWZ6XjGn5b5-111" target="4xoYJjt1EuWZ6XjGn5b5-116">
          <mxGeometry relative="1" as="geometry">
            <mxPoint x="252.00000000000023" y="-770" as="sourcePoint" />
            <mxPoint x="290.0000000000002" y="-831" as="targetPoint" />
          </mxGeometry>
        </mxCell>
        <mxCell id="4xoYJjt1EuWZ6XjGn5b5-118" value="foundingDate" style="ellipse;whiteSpace=wrap;html=1;align=center;" vertex="1" parent="1">
          <mxGeometry x="333.1300000000002" y="-799" width="89.87" height="32" as="geometry" />
        </mxCell>
        <mxCell id="4xoYJjt1EuWZ6XjGn5b5-119" value="" style="endArrow=none;html=1;rounded=0;entryX=0;entryY=0;entryDx=0;entryDy=0;exitX=1;exitY=1;exitDx=0;exitDy=0;" edge="1" parent="1" source="4xoYJjt1EuWZ6XjGn5b5-111" target="4xoYJjt1EuWZ6XjGn5b5-118">
          <mxGeometry relative="1" as="geometry">
            <mxPoint x="87.00000000000011" y="-722" as="sourcePoint" />
            <mxPoint x="293.50763000000074" y="-690.0160000000001" as="targetPoint" />
          </mxGeometry>
        </mxCell>
        <mxCell id="4xoYJjt1EuWZ6XjGn5b5-121" value="CEO" style="ellipse;whiteSpace=wrap;html=1;align=center;" vertex="1" parent="1">
          <mxGeometry x="-22.999999999999886" y="-987" width="93" height="30" as="geometry" />
        </mxCell>
        <mxCell id="4xoYJjt1EuWZ6XjGn5b5-123" value="" style="endArrow=none;html=1;rounded=0;entryX=0.157;entryY=0.038;entryDx=0;entryDy=0;exitX=0.707;exitY=0.992;exitDx=0;exitDy=0;exitPerimeter=0;entryPerimeter=0;" edge="1" parent="1" source="4xoYJjt1EuWZ6XjGn5b5-121" target="4xoYJjt1EuWZ6XjGn5b5-111">
          <mxGeometry relative="1" as="geometry">
            <mxPoint x="40.000000000000114" y="-807" as="sourcePoint" />
            <mxPoint x="97.00000000000011" y="-748" as="targetPoint" />
          </mxGeometry>
        </mxCell>
        <mxCell id="4xoYJjt1EuWZ6XjGn5b5-124" value="description" style="ellipse;whiteSpace=wrap;html=1;align=center;" vertex="1" parent="1">
          <mxGeometry x="229.00000000000023" y="-744" width="94" height="32" as="geometry" />
        </mxCell>
        <mxCell id="4xoYJjt1EuWZ6XjGn5b5-125" value="" style="endArrow=none;html=1;rounded=0;entryX=0.5;entryY=0;entryDx=0;entryDy=0;exitX=0.882;exitY=1.01;exitDx=0;exitDy=0;exitPerimeter=0;" edge="1" parent="1" source="4xoYJjt1EuWZ6XjGn5b5-111" target="4xoYJjt1EuWZ6XjGn5b5-124">
          <mxGeometry relative="1" as="geometry">
            <mxPoint x="264.0000000000002" y="-722" as="sourcePoint" />
            <mxPoint x="340.0000000000002" y="-644" as="targetPoint" />
          </mxGeometry>
        </mxCell>
        <mxCell id="4xoYJjt1EuWZ6XjGn5b5-126" value="FAVOURITES" style="shape=ext;margin=3;double=1;whiteSpace=wrap;html=1;align=center;" vertex="1" parent="1">
          <mxGeometry x="-843" y="629" width="100" height="40" as="geometry" />
        </mxCell>
        <mxCell id="4xoYJjt1EuWZ6XjGn5b5-127" value="userID" style="ellipse;whiteSpace=wrap;html=1;align=center;" vertex="1" parent="1">
          <mxGeometry x="-993" y="558" width="100" height="40" as="geometry" />
        </mxCell>
        <mxCell id="4xoYJjt1EuWZ6XjGn5b5-128" value="movieID/seriesID" style="ellipse;whiteSpace=wrap;html=1;align=center;" vertex="1" parent="1">
          <mxGeometry x="-714.25" y="691" width="100" height="40" as="geometry" />
        </mxCell>
        <mxCell id="4xoYJjt1EuWZ6XjGn5b5-129" value="" style="endArrow=none;html=1;rounded=0;entryX=0;entryY=0;entryDx=0;entryDy=0;exitX=0.712;exitY=0.991;exitDx=0;exitDy=0;exitPerimeter=0;" edge="1" parent="1" source="4xoYJjt1EuWZ6XjGn5b5-127" target="4xoYJjt1EuWZ6XjGn5b5-126">
          <mxGeometry relative="1" as="geometry">
            <mxPoint x="-1017.25" y="623" as="sourcePoint" />
            <mxPoint x="-857.25" y="623" as="targetPoint" />
          </mxGeometry>
        </mxCell>
        <mxCell id="4xoYJjt1EuWZ6XjGn5b5-130" value="" style="endArrow=none;html=1;rounded=0;entryX=1;entryY=1;entryDx=0;entryDy=0;exitX=0;exitY=0;exitDx=0;exitDy=0;" edge="1" parent="1" source="4xoYJjt1EuWZ6XjGn5b5-128" target="4xoYJjt1EuWZ6XjGn5b5-126">
          <mxGeometry relative="1" as="geometry">
            <mxPoint x="-912.25" y="608" as="sourcePoint" />
            <mxPoint x="-852.25" y="639" as="targetPoint" />
          </mxGeometry>
        </mxCell>
        <mxCell id="4xoYJjt1EuWZ6XjGn5b5-131" value="ADD_TO_FAVOURITES" style="shape=rhombus;double=1;perimeter=rhombusPerimeter;whiteSpace=wrap;html=1;align=center;" vertex="1" parent="1">
          <mxGeometry x="-883" y="414" width="178" height="87" as="geometry" />
        </mxCell>
        <mxCell id="4xoYJjt1EuWZ6XjGn5b5-135" value="" style="endArrow=none;html=1;rounded=0;exitX=1;exitY=0.5;exitDx=0;exitDy=0;entryX=0;entryY=0.5;entryDx=0;entryDy=0;" edge="1" parent="1" source="IYuZv80g8VhSKte-m324-3" target="4xoYJjt1EuWZ6XjGn5b5-131">
          <mxGeometry relative="1" as="geometry">
            <mxPoint x="-193" y="499" as="sourcePoint" />
            <mxPoint x="-174" y="457" as="targetPoint" />
          </mxGeometry>
        </mxCell>
        <mxCell id="4xoYJjt1EuWZ6XjGn5b5-136" value="M" style="resizable=0;html=1;whiteSpace=wrap;align=right;verticalAlign=bottom;" connectable="0" vertex="1" parent="4xoYJjt1EuWZ6XjGn5b5-135">
          <mxGeometry x="1" relative="1" as="geometry" />
        </mxCell>
        <mxCell id="4xoYJjt1EuWZ6XjGn5b5-137" value="" style="endArrow=none;html=1;rounded=0;entryX=1;entryY=0.5;entryDx=0;entryDy=0;exitX=0;exitY=0.5;exitDx=0;exitDy=0;" edge="1" parent="1" source="IYuZv80g8VhSKte-m324-2" target="4xoYJjt1EuWZ6XjGn5b5-131">
          <mxGeometry relative="1" as="geometry">
            <mxPoint x="-193" y="499" as="sourcePoint" />
            <mxPoint x="-33" y="499" as="targetPoint" />
          </mxGeometry>
        </mxCell>
        <mxCell id="4xoYJjt1EuWZ6XjGn5b5-138" value="N" style="resizable=0;html=1;whiteSpace=wrap;align=right;verticalAlign=bottom;" connectable="0" vertex="1" parent="4xoYJjt1EuWZ6XjGn5b5-137">
          <mxGeometry x="1" relative="1" as="geometry">
            <mxPoint x="10" y="-1" as="offset" />
          </mxGeometry>
        </mxCell>
        <mxCell id="4xoYJjt1EuWZ6XjGn5b5-139" value="" style="endArrow=none;html=1;rounded=0;exitX=0.5;exitY=1;exitDx=0;exitDy=0;entryX=0.5;entryY=0;entryDx=0;entryDy=0;" edge="1" parent="1" source="IYuZv80g8VhSKte-m324-1" target="4xoYJjt1EuWZ6XjGn5b5-131">
          <mxGeometry relative="1" as="geometry">
            <mxPoint x="-193" y="214" as="sourcePoint" />
            <mxPoint x="-33" y="214" as="targetPoint" />
          </mxGeometry>
        </mxCell>
        <mxCell id="4xoYJjt1EuWZ6XjGn5b5-140" value="N" style="resizable=0;html=1;whiteSpace=wrap;align=right;verticalAlign=bottom;" connectable="0" vertex="1" parent="4xoYJjt1EuWZ6XjGn5b5-139">
          <mxGeometry x="1" relative="1" as="geometry">
            <mxPoint x="-5" y="-7" as="offset" />
          </mxGeometry>
        </mxCell>
        <mxCell id="4xoYJjt1EuWZ6XjGn5b5-142" value="ACTS" style="shape=rhombus;perimeter=rhombusPerimeter;whiteSpace=wrap;html=1;align=center;" vertex="1" parent="1">
          <mxGeometry x="-515" y="-45" width="120" height="60" as="geometry" />
        </mxCell>
        <mxCell id="4xoYJjt1EuWZ6XjGn5b5-143" value="" style="shape=link;html=1;rounded=0;exitX=0.5;exitY=1;exitDx=0;exitDy=0;entryX=0.5;entryY=0;entryDx=0;entryDy=0;" edge="1" parent="1" source="4xoYJjt1EuWZ6XjGn5b5-131" target="4xoYJjt1EuWZ6XjGn5b5-126">
          <mxGeometry relative="1" as="geometry">
            <mxPoint x="-20" y="559" as="sourcePoint" />
            <mxPoint x="140" y="559" as="targetPoint" />
          </mxGeometry>
        </mxCell>
        <mxCell id="4xoYJjt1EuWZ6XjGn5b5-144" value="M" style="resizable=0;html=1;whiteSpace=wrap;align=left;verticalAlign=bottom;" connectable="0" vertex="1" parent="4xoYJjt1EuWZ6XjGn5b5-143">
          <mxGeometry x="-1" relative="1" as="geometry">
            <mxPoint x="4" y="19" as="offset" />
          </mxGeometry>
        </mxCell>
        <mxCell id="4xoYJjt1EuWZ6XjGn5b5-145" value="N" style="resizable=0;html=1;whiteSpace=wrap;align=right;verticalAlign=bottom;" connectable="0" vertex="1" parent="4xoYJjt1EuWZ6XjGn5b5-143">
          <mxGeometry x="1" relative="1" as="geometry">
            <mxPoint x="17" y="-2" as="offset" />
          </mxGeometry>
        </mxCell>
        <mxCell id="4xoYJjt1EuWZ6XjGn5b5-146" value="PRODUCES" style="shape=rhombus;perimeter=rhombusPerimeter;whiteSpace=wrap;html=1;align=center;" vertex="1" parent="1">
          <mxGeometry x="96.00000000000011" y="-584.9999999999999" width="133" height="60" as="geometry" />
        </mxCell>
        <mxCell id="4xoYJjt1EuWZ6XjGn5b5-149" value="" style="endArrow=none;html=1;rounded=0;entryX=0.5;entryY=0;entryDx=0;entryDy=0;exitX=0.5;exitY=1;exitDx=0;exitDy=0;" edge="1" parent="1" source="4xoYJjt1EuWZ6XjGn5b5-111" target="4xoYJjt1EuWZ6XjGn5b5-146">
          <mxGeometry relative="1" as="geometry">
            <mxPoint x="1484.12" y="-216.57" as="sourcePoint" />
            <mxPoint x="1126.1200000000001" y="-309.57" as="targetPoint" />
          </mxGeometry>
        </mxCell>
        <mxCell id="4xoYJjt1EuWZ6XjGn5b5-150" value="1" style="resizable=0;html=1;whiteSpace=wrap;align=right;verticalAlign=bottom;" connectable="0" vertex="1" parent="4xoYJjt1EuWZ6XjGn5b5-149">
          <mxGeometry x="1" relative="1" as="geometry">
            <mxPoint x="9" as="offset" />
          </mxGeometry>
        </mxCell>
        <mxCell id="4xoYJjt1EuWZ6XjGn5b5-151" value="" style="endArrow=none;html=1;rounded=0;exitX=0.5;exitY=0;exitDx=0;exitDy=0;entryX=0.5;entryY=1;entryDx=0;entryDy=0;" edge="1" parent="1" source="IYuZv80g8VhSKte-m324-2" target="4xoYJjt1EuWZ6XjGn5b5-146">
          <mxGeometry relative="1" as="geometry">
            <mxPoint x="377" y="92" as="sourcePoint" />
            <mxPoint x="537" y="92" as="targetPoint" />
          </mxGeometry>
        </mxCell>
        <mxCell id="4xoYJjt1EuWZ6XjGn5b5-152" value="N" style="resizable=0;html=1;whiteSpace=wrap;align=right;verticalAlign=bottom;" connectable="0" vertex="1" parent="4xoYJjt1EuWZ6XjGn5b5-151">
          <mxGeometry x="1" relative="1" as="geometry">
            <mxPoint x="-624" y="559" as="offset" />
          </mxGeometry>
        </mxCell>
        <mxCell id="4xoYJjt1EuWZ6XjGn5b5-153" value="" style="endArrow=none;html=1;rounded=0;exitX=1;exitY=0.75;exitDx=0;exitDy=0;entryX=0;entryY=0.5;entryDx=0;entryDy=0;" edge="1" parent="1" source="IYuZv80g8VhSKte-m324-1" target="4xoYJjt1EuWZ6XjGn5b5-146">
          <mxGeometry relative="1" as="geometry">
            <mxPoint x="412" y="145" as="sourcePoint" />
            <mxPoint x="572" y="145" as="targetPoint" />
          </mxGeometry>
        </mxCell>
        <mxCell id="4xoYJjt1EuWZ6XjGn5b5-154" value="N" style="resizable=0;html=1;whiteSpace=wrap;align=right;verticalAlign=bottom;" connectable="0" vertex="1" parent="4xoYJjt1EuWZ6XjGn5b5-153">
          <mxGeometry x="1" relative="1" as="geometry" />
        </mxCell>
        <mxCell id="4xoYJjt1EuWZ6XjGn5b5-160" value="" style="endArrow=none;html=1;rounded=0;exitX=0.5;exitY=1;exitDx=0;exitDy=0;entryX=0;entryY=0.5;entryDx=0;entryDy=0;" edge="1" parent="1" source="IYuZv80g8VhSKte-m324-1" target="4xoYJjt1EuWZ6XjGn5b5-142">
          <mxGeometry relative="1" as="geometry">
            <mxPoint x="-191" y="-292" as="sourcePoint" />
            <mxPoint x="-31" y="-292" as="targetPoint" />
          </mxGeometry>
        </mxCell>
        <mxCell id="4xoYJjt1EuWZ6XjGn5b5-161" value="M" style="resizable=0;html=1;whiteSpace=wrap;align=left;verticalAlign=bottom;" connectable="0" vertex="1" parent="4xoYJjt1EuWZ6XjGn5b5-160">
          <mxGeometry x="-1" relative="1" as="geometry">
            <mxPoint x="10" y="22" as="offset" />
          </mxGeometry>
        </mxCell>
        <mxCell id="4xoYJjt1EuWZ6XjGn5b5-162" value="N" style="resizable=0;html=1;whiteSpace=wrap;align=right;verticalAlign=bottom;" connectable="0" vertex="1" parent="4xoYJjt1EuWZ6XjGn5b5-160">
          <mxGeometry x="1" relative="1" as="geometry">
            <mxPoint x="9" y="-8" as="offset" />
          </mxGeometry>
        </mxCell>
        <mxCell id="4xoYJjt1EuWZ6XjGn5b5-163" value="" style="endArrow=none;html=1;rounded=0;entryX=0.25;entryY=0;entryDx=0;entryDy=0;exitX=1;exitY=0.5;exitDx=0;exitDy=0;" edge="1" parent="1" source="4xoYJjt1EuWZ6XjGn5b5-142" target="IYuZv80g8VhSKte-m324-2">
          <mxGeometry relative="1" as="geometry">
            <mxPoint x="-191" y="-6" as="sourcePoint" />
            <mxPoint x="-31" y="-6" as="targetPoint" />
          </mxGeometry>
        </mxCell>
        <mxCell id="4xoYJjt1EuWZ6XjGn5b5-164" value="M" style="resizable=0;html=1;whiteSpace=wrap;align=left;verticalAlign=bottom;" connectable="0" vertex="1" parent="4xoYJjt1EuWZ6XjGn5b5-163">
          <mxGeometry x="-1" relative="1" as="geometry" />
        </mxCell>
        <mxCell id="4xoYJjt1EuWZ6XjGn5b5-165" value="N" style="resizable=0;html=1;whiteSpace=wrap;align=right;verticalAlign=bottom;" connectable="0" vertex="1" parent="4xoYJjt1EuWZ6XjGn5b5-163">
          <mxGeometry x="1" relative="1" as="geometry">
            <mxPoint x="41" y="-940" as="offset" />
          </mxGeometry>
        </mxCell>
        <mxCell id="4xoYJjt1EuWZ6XjGn5b5-168" value="N" style="resizable=0;html=1;whiteSpace=wrap;align=right;verticalAlign=bottom;" connectable="0" vertex="1" parent="1">
          <mxGeometry x="-300.9984111216229" y="82.99940099543805" as="geometry">
            <mxPoint x="449" y="344" as="offset" />
          </mxGeometry>
        </mxCell>
        <mxCell id="4xoYJjt1EuWZ6XjGn5b5-169" value="" style="endArrow=none;html=1;rounded=0;entryX=0.5;entryY=1;entryDx=0;entryDy=0;exitX=0.5;exitY=0;exitDx=0;exitDy=0;" edge="1" parent="1" source="IYuZv80g8VhSKte-m324-26" target="4xoYJjt1EuWZ6XjGn5b5-142">
          <mxGeometry relative="1" as="geometry">
            <mxPoint x="-850" y="132" as="sourcePoint" />
            <mxPoint x="-690" y="132" as="targetPoint" />
          </mxGeometry>
        </mxCell>
        <mxCell id="4xoYJjt1EuWZ6XjGn5b5-172" value="" style="endArrow=none;html=1;rounded=0;entryX=0.5;entryY=0;entryDx=0;entryDy=0;exitX=0.5;exitY=1;exitDx=0;exitDy=0;" edge="1" parent="1" source="4xoYJjt1EuWZ6XjGn5b5-102" target="4xoYJjt1EuWZ6XjGn5b5-142">
          <mxGeometry relative="1" as="geometry">
            <mxPoint x="-573" y="-80" as="sourcePoint" />
            <mxPoint x="-413" y="-80" as="targetPoint" />
          </mxGeometry>
        </mxCell>
        <mxCell id="4xoYJjt1EuWZ6XjGn5b5-173" value="N" style="resizable=0;html=1;whiteSpace=wrap;align=right;verticalAlign=bottom;" connectable="0" vertex="1" parent="4xoYJjt1EuWZ6XjGn5b5-172">
          <mxGeometry x="1" relative="1" as="geometry" />
        </mxCell>
        <mxCell id="U_6VeWmPkKvnl-wSwSqu-1" value="EMPLOYEE" style="rounded=0;whiteSpace=wrap;html=1;" vertex="1" parent="1">
          <mxGeometry x="-1368" y="-850" width="120" height="30" as="geometry" />
        </mxCell>
        <mxCell id="U_6VeWmPkKvnl-wSwSqu-2" value="Name" style="ellipse;whiteSpace=wrap;html=1;" vertex="1" parent="1">
          <mxGeometry x="-1490" y="-939" width="84" height="29" as="geometry" />
        </mxCell>
        <mxCell id="U_6VeWmPkKvnl-wSwSqu-3" value="Address" style="ellipse;whiteSpace=wrap;html=1;" vertex="1" parent="1">
          <mxGeometry x="-1327.5" y="-971" width="84" height="29" as="geometry" />
        </mxCell>
        <mxCell id="U_6VeWmPkKvnl-wSwSqu-4" value="&lt;u&gt;Employee_ID&lt;/u&gt;" style="ellipse;whiteSpace=wrap;html=1;" vertex="1" parent="1">
          <mxGeometry x="-1252" y="-945" width="84" height="29" as="geometry" />
        </mxCell>
        <mxCell id="U_6VeWmPkKvnl-wSwSqu-5" value="salary" style="ellipse;whiteSpace=wrap;html=1;" vertex="1" parent="1">
          <mxGeometry x="-1162.5" y="-913" width="84" height="29" as="geometry" />
        </mxCell>
        <mxCell id="U_6VeWmPkKvnl-wSwSqu-6" value="Gender" style="ellipse;whiteSpace=wrap;html=1;" vertex="1" parent="1">
          <mxGeometry x="-1574" y="-899" width="84" height="29" as="geometry" />
        </mxCell>
        <mxCell id="U_6VeWmPkKvnl-wSwSqu-7" value="Web_Developer" style="ellipse;whiteSpace=wrap;html=1;" vertex="1" parent="1">
          <mxGeometry x="-1837" y="-971" width="101" height="29" as="geometry" />
        </mxCell>
        <mxCell id="U_6VeWmPkKvnl-wSwSqu-8" value="Screen_Writer" style="ellipse;whiteSpace=wrap;html=1;" vertex="1" parent="1">
          <mxGeometry x="-1975" y="-808" width="99" height="29" as="geometry" />
        </mxCell>
        <mxCell id="U_6VeWmPkKvnl-wSwSqu-9" value="" style="endArrow=none;html=1;rounded=0;exitX=0;exitY=0.5;exitDx=0;exitDy=0;entryX=1;entryY=0;entryDx=0;entryDy=0;" edge="1" parent="1" source="U_6VeWmPkKvnl-wSwSqu-5" target="U_6VeWmPkKvnl-wSwSqu-1">
          <mxGeometry width="50" height="50" relative="1" as="geometry">
            <mxPoint x="-915" y="-652" as="sourcePoint" />
            <mxPoint x="-865" y="-702" as="targetPoint" />
          </mxGeometry>
        </mxCell>
        <mxCell id="U_6VeWmPkKvnl-wSwSqu-10" value="" style="endArrow=none;html=1;rounded=0;exitX=0.275;exitY=1.048;exitDx=0;exitDy=0;exitPerimeter=0;entryX=0.75;entryY=0;entryDx=0;entryDy=0;" edge="1" parent="1" source="U_6VeWmPkKvnl-wSwSqu-4" target="U_6VeWmPkKvnl-wSwSqu-1">
          <mxGeometry width="50" height="50" relative="1" as="geometry">
            <mxPoint x="-915" y="-652" as="sourcePoint" />
            <mxPoint x="-865" y="-702" as="targetPoint" />
          </mxGeometry>
        </mxCell>
        <mxCell id="U_6VeWmPkKvnl-wSwSqu-11" value="" style="endArrow=none;html=1;rounded=0;exitX=0.5;exitY=1;exitDx=0;exitDy=0;entryX=0.5;entryY=0;entryDx=0;entryDy=0;" edge="1" parent="1" source="U_6VeWmPkKvnl-wSwSqu-3" target="U_6VeWmPkKvnl-wSwSqu-1">
          <mxGeometry width="50" height="50" relative="1" as="geometry">
            <mxPoint x="-915" y="-652" as="sourcePoint" />
            <mxPoint x="-865" y="-702" as="targetPoint" />
          </mxGeometry>
        </mxCell>
        <mxCell id="U_6VeWmPkKvnl-wSwSqu-12" value="" style="endArrow=none;html=1;rounded=0;exitX=0.5;exitY=1;exitDx=0;exitDy=0;entryX=0.25;entryY=0;entryDx=0;entryDy=0;" edge="1" parent="1" source="U_6VeWmPkKvnl-wSwSqu-2" target="U_6VeWmPkKvnl-wSwSqu-1">
          <mxGeometry width="50" height="50" relative="1" as="geometry">
            <mxPoint x="-915" y="-652" as="sourcePoint" />
            <mxPoint x="-865" y="-702" as="targetPoint" />
          </mxGeometry>
        </mxCell>
        <mxCell id="U_6VeWmPkKvnl-wSwSqu-15" value="" style="endArrow=none;html=1;rounded=0;exitX=1;exitY=1;exitDx=0;exitDy=0;entryX=0;entryY=0.25;entryDx=0;entryDy=0;" edge="1" parent="1" source="U_6VeWmPkKvnl-wSwSqu-6" target="U_6VeWmPkKvnl-wSwSqu-1">
          <mxGeometry width="50" height="50" relative="1" as="geometry">
            <mxPoint x="-915" y="-652" as="sourcePoint" />
            <mxPoint x="-865" y="-702" as="targetPoint" />
          </mxGeometry>
        </mxCell>
        <mxCell id="U_6VeWmPkKvnl-wSwSqu-16" value="State" style="ellipse;whiteSpace=wrap;html=1;" vertex="1" parent="1">
          <mxGeometry x="-1386" y="-1054" width="84" height="29" as="geometry" />
        </mxCell>
        <mxCell id="U_6VeWmPkKvnl-wSwSqu-17" value="City" style="ellipse;whiteSpace=wrap;html=1;" vertex="1" parent="1">
          <mxGeometry x="-1322" y="-1034" width="84" height="29" as="geometry" />
        </mxCell>
        <mxCell id="U_6VeWmPkKvnl-wSwSqu-18" value="Postal_code" style="ellipse;whiteSpace=wrap;html=1;" vertex="1" parent="1">
          <mxGeometry x="-1222" y="-1025" width="84" height="29" as="geometry" />
        </mxCell>
        <mxCell id="U_6VeWmPkKvnl-wSwSqu-19" value="" style="endArrow=none;html=1;rounded=0;exitX=0;exitY=1;exitDx=0;exitDy=0;entryX=1;entryY=0;entryDx=0;entryDy=0;" edge="1" parent="1" source="U_6VeWmPkKvnl-wSwSqu-18" target="U_6VeWmPkKvnl-wSwSqu-3">
          <mxGeometry width="50" height="50" relative="1" as="geometry">
            <mxPoint x="-620" y="-529" as="sourcePoint" />
            <mxPoint x="-570" y="-579" as="targetPoint" />
          </mxGeometry>
        </mxCell>
        <mxCell id="U_6VeWmPkKvnl-wSwSqu-20" value="" style="endArrow=none;html=1;rounded=0;exitX=0.361;exitY=0.975;exitDx=0;exitDy=0;exitPerimeter=0;entryX=0.5;entryY=0;entryDx=0;entryDy=0;" edge="1" parent="1" source="U_6VeWmPkKvnl-wSwSqu-17" target="U_6VeWmPkKvnl-wSwSqu-3">
          <mxGeometry width="50" height="50" relative="1" as="geometry">
            <mxPoint x="-620" y="-529" as="sourcePoint" />
            <mxPoint x="-1292" y="-980" as="targetPoint" />
          </mxGeometry>
        </mxCell>
        <mxCell id="U_6VeWmPkKvnl-wSwSqu-21" value="" style="endArrow=none;html=1;rounded=0;exitX=0.5;exitY=1;exitDx=0;exitDy=0;entryX=0;entryY=0;entryDx=0;entryDy=0;" edge="1" parent="1" source="U_6VeWmPkKvnl-wSwSqu-16" target="U_6VeWmPkKvnl-wSwSqu-3">
          <mxGeometry width="50" height="50" relative="1" as="geometry">
            <mxPoint x="-620" y="-529" as="sourcePoint" />
            <mxPoint x="-570" y="-579" as="targetPoint" />
          </mxGeometry>
        </mxCell>
        <mxCell id="U_6VeWmPkKvnl-wSwSqu-22" value="Film_Editor" style="ellipse;whiteSpace=wrap;html=1;" vertex="1" parent="1">
          <mxGeometry x="-1975" y="-852" width="84" height="29" as="geometry" />
        </mxCell>
        <mxCell id="U_6VeWmPkKvnl-wSwSqu-23" value="Programmer" style="ellipse;whiteSpace=wrap;html=1;" vertex="1" parent="1">
          <mxGeometry x="-1915" y="-939" width="84" height="29" as="geometry" />
        </mxCell>
        <mxCell id="U_6VeWmPkKvnl-wSwSqu-24" value="has" style="rhombus;whiteSpace=wrap;html=1;" vertex="1" parent="1">
          <mxGeometry x="-714.25" y="-875" width="80" height="80" as="geometry" />
        </mxCell>
        <mxCell id="U_6VeWmPkKvnl-wSwSqu-27" value="DEVELOPER" style="rounded=0;whiteSpace=wrap;html=1;" vertex="1" parent="1">
          <mxGeometry x="-1794" y="-907" width="120" height="30" as="geometry" />
        </mxCell>
        <mxCell id="U_6VeWmPkKvnl-wSwSqu-28" value="POST_PRODUCTION" style="rounded=0;whiteSpace=wrap;html=1;" vertex="1" parent="1">
          <mxGeometry x="-1831" y="-834" width="120" height="30" as="geometry" />
        </mxCell>
        <mxCell id="U_6VeWmPkKvnl-wSwSqu-29" value="ACCOUNT_MANAGEMENT" style="rounded=0;whiteSpace=wrap;html=1;" vertex="1" parent="1">
          <mxGeometry x="-1859" y="-716" width="172" height="30" as="geometry" />
        </mxCell>
        <mxCell id="U_6VeWmPkKvnl-wSwSqu-30" value="ACCOUNT_SUBSCRIPTION" style="rounded=0;whiteSpace=wrap;html=1;" vertex="1" parent="1">
          <mxGeometry x="-1719" y="-292" width="188" height="30" as="geometry" />
        </mxCell>
        <mxCell id="U_6VeWmPkKvnl-wSwSqu-31" value="Subscription_&lt;div&gt;EndDate&lt;/div&gt;" style="ellipse;whiteSpace=wrap;html=1;" vertex="1" parent="1">
          <mxGeometry x="-1854" y="-383" width="91" height="48" as="geometry" />
        </mxCell>
        <mxCell id="U_6VeWmPkKvnl-wSwSqu-32" value="Subscription_ StartDate" style="ellipse;whiteSpace=wrap;html=1;" vertex="1" parent="1">
          <mxGeometry x="-1719" y="-386" width="95" height="44.5" as="geometry" />
        </mxCell>
        <mxCell id="U_6VeWmPkKvnl-wSwSqu-34" value="OnCredit_&lt;div&gt;Payment_&lt;div&gt;Subscription&lt;/div&gt;&lt;/div&gt;" style="ellipse;whiteSpace=wrap;html=1;" vertex="1" parent="1">
          <mxGeometry x="-2007" y="-336.5" width="90" height="54" as="geometry" />
        </mxCell>
        <mxCell id="U_6VeWmPkKvnl-wSwSqu-37" value="" style="shape=link;html=1;rounded=0;" edge="1" parent="1">
          <mxGeometry width="100" relative="1" as="geometry">
            <mxPoint x="-1553" y="-833" as="sourcePoint" />
            <mxPoint x="-1372" y="-833" as="targetPoint" />
          </mxGeometry>
        </mxCell>
        <mxCell id="U_6VeWmPkKvnl-wSwSqu-43" value="JOB_TYPE" style="edgeLabel;html=1;align=center;verticalAlign=middle;resizable=0;points=[];" connectable="0" vertex="1" parent="U_6VeWmPkKvnl-wSwSqu-37">
          <mxGeometry x="0.3933" y="-8" relative="1" as="geometry">
            <mxPoint x="1" as="offset" />
          </mxGeometry>
        </mxCell>
        <mxCell id="U_6VeWmPkKvnl-wSwSqu-38" value="d" style="ellipse;whiteSpace=wrap;html=1;aspect=fixed;" vertex="1" parent="1">
          <mxGeometry x="-1577" y="-843" width="23" height="23" as="geometry" />
        </mxCell>
        <mxCell id="U_6VeWmPkKvnl-wSwSqu-39" value="" style="endArrow=none;html=1;rounded=0;exitX=1;exitY=0.5;exitDx=0;exitDy=0;entryX=0.5;entryY=0;entryDx=0;entryDy=0;" edge="1" parent="1" source="U_6VeWmPkKvnl-wSwSqu-27" target="U_6VeWmPkKvnl-wSwSqu-38">
          <mxGeometry width="50" height="50" relative="1" as="geometry">
            <mxPoint x="-1086" y="-675" as="sourcePoint" />
            <mxPoint x="-1036" y="-725" as="targetPoint" />
          </mxGeometry>
        </mxCell>
        <mxCell id="U_6VeWmPkKvnl-wSwSqu-40" value="" style="endArrow=none;html=1;rounded=0;exitX=1;exitY=0.5;exitDx=0;exitDy=0;entryX=0;entryY=0.5;entryDx=0;entryDy=0;" edge="1" parent="1" source="U_6VeWmPkKvnl-wSwSqu-28" target="U_6VeWmPkKvnl-wSwSqu-38">
          <mxGeometry width="50" height="50" relative="1" as="geometry">
            <mxPoint x="-1086" y="-675" as="sourcePoint" />
            <mxPoint x="-1036" y="-725" as="targetPoint" />
          </mxGeometry>
        </mxCell>
        <mxCell id="U_6VeWmPkKvnl-wSwSqu-41" value="" style="endArrow=none;html=1;rounded=0;exitX=0.703;exitY=1;exitDx=0;exitDy=0;exitPerimeter=0;entryX=0.5;entryY=0;entryDx=0;entryDy=0;" edge="1" parent="1" source="U_6VeWmPkKvnl-wSwSqu-7" target="U_6VeWmPkKvnl-wSwSqu-27">
          <mxGeometry width="50" height="50" relative="1" as="geometry">
            <mxPoint x="-1086" y="-675" as="sourcePoint" />
            <mxPoint x="-1036" y="-725" as="targetPoint" />
          </mxGeometry>
        </mxCell>
        <mxCell id="U_6VeWmPkKvnl-wSwSqu-42" value="" style="endArrow=none;html=1;rounded=0;exitX=1;exitY=0.5;exitDx=0;exitDy=0;entryX=0;entryY=0.25;entryDx=0;entryDy=0;" edge="1" parent="1" source="U_6VeWmPkKvnl-wSwSqu-23" target="U_6VeWmPkKvnl-wSwSqu-27">
          <mxGeometry width="50" height="50" relative="1" as="geometry">
            <mxPoint x="-1086" y="-675" as="sourcePoint" />
            <mxPoint x="-1036" y="-725" as="targetPoint" />
          </mxGeometry>
        </mxCell>
        <mxCell id="U_6VeWmPkKvnl-wSwSqu-44" value="Screen_Writor" style="ellipse;whiteSpace=wrap;html=1;" vertex="1" parent="1">
          <mxGeometry x="-2026" y="-760" width="99" height="29" as="geometry" />
        </mxCell>
        <mxCell id="U_6VeWmPkKvnl-wSwSqu-45" value="CyberSecurity" style="ellipse;whiteSpace=wrap;html=1;" vertex="1" parent="1">
          <mxGeometry x="-1730" y="-976" width="99" height="34" as="geometry" />
        </mxCell>
        <mxCell id="U_6VeWmPkKvnl-wSwSqu-46" value="" style="endArrow=none;html=1;rounded=0;exitX=0;exitY=1;exitDx=0;exitDy=0;entryX=1;entryY=0;entryDx=0;entryDy=0;" edge="1" parent="1" source="U_6VeWmPkKvnl-wSwSqu-38" target="U_6VeWmPkKvnl-wSwSqu-29">
          <mxGeometry width="50" height="50" relative="1" as="geometry">
            <mxPoint x="-1401" y="-776" as="sourcePoint" />
            <mxPoint x="-1351" y="-826" as="targetPoint" />
          </mxGeometry>
        </mxCell>
        <mxCell id="U_6VeWmPkKvnl-wSwSqu-47" value="" style="endArrow=none;html=1;rounded=0;exitX=1;exitY=0.5;exitDx=0;exitDy=0;entryX=0;entryY=0.5;entryDx=0;entryDy=0;" edge="1" parent="1" source="U_6VeWmPkKvnl-wSwSqu-22" target="U_6VeWmPkKvnl-wSwSqu-28">
          <mxGeometry width="50" height="50" relative="1" as="geometry">
            <mxPoint x="-1401" y="-776" as="sourcePoint" />
            <mxPoint x="-1351" y="-826" as="targetPoint" />
          </mxGeometry>
        </mxCell>
        <mxCell id="U_6VeWmPkKvnl-wSwSqu-48" value="" style="endArrow=none;html=1;rounded=0;exitX=1;exitY=0.5;exitDx=0;exitDy=0;entryX=0;entryY=0.75;entryDx=0;entryDy=0;" edge="1" parent="1" source="U_6VeWmPkKvnl-wSwSqu-8" target="U_6VeWmPkKvnl-wSwSqu-28">
          <mxGeometry width="50" height="50" relative="1" as="geometry">
            <mxPoint x="-1401" y="-776" as="sourcePoint" />
            <mxPoint x="-1835" y="-805" as="targetPoint" />
          </mxGeometry>
        </mxCell>
        <mxCell id="U_6VeWmPkKvnl-wSwSqu-49" value="" style="endArrow=none;html=1;rounded=0;exitX=0;exitY=0;exitDx=0;exitDy=0;" edge="1" parent="1" source="U_6VeWmPkKvnl-wSwSqu-50">
          <mxGeometry width="50" height="50" relative="1" as="geometry">
            <mxPoint x="-1401" y="-776" as="sourcePoint" />
            <mxPoint x="-1931" y="-886" as="targetPoint" />
          </mxGeometry>
        </mxCell>
        <mxCell id="U_6VeWmPkKvnl-wSwSqu-51" value="" style="endArrow=none;html=1;rounded=0;entryX=0.75;entryY=0;entryDx=0;entryDy=0;" edge="1" parent="1" source="U_6VeWmPkKvnl-wSwSqu-45" target="U_6VeWmPkKvnl-wSwSqu-27">
          <mxGeometry width="50" height="50" relative="1" as="geometry">
            <mxPoint x="-1453" y="-804" as="sourcePoint" />
            <mxPoint x="-1403" y="-854" as="targetPoint" />
          </mxGeometry>
        </mxCell>
        <mxCell id="U_6VeWmPkKvnl-wSwSqu-53" value="" style="endArrow=none;html=1;rounded=0;exitX=0;exitY=0;exitDx=0;exitDy=0;" edge="1" parent="1" source="U_6VeWmPkKvnl-wSwSqu-28" target="U_6VeWmPkKvnl-wSwSqu-50">
          <mxGeometry width="50" height="50" relative="1" as="geometry">
            <mxPoint x="-1831" y="-834" as="sourcePoint" />
            <mxPoint x="-1931" y="-886" as="targetPoint" />
          </mxGeometry>
        </mxCell>
        <mxCell id="U_6VeWmPkKvnl-wSwSqu-50" value="Producer" style="ellipse;whiteSpace=wrap;html=1;" vertex="1" parent="1">
          <mxGeometry x="-1975" y="-899" width="84" height="29" as="geometry" />
        </mxCell>
        <mxCell id="U_6VeWmPkKvnl-wSwSqu-54" value="" style="endArrow=none;html=1;rounded=0;entryX=0;entryY=0.5;entryDx=0;entryDy=0;exitX=1;exitY=0.5;exitDx=0;exitDy=0;" edge="1" parent="1" source="U_6VeWmPkKvnl-wSwSqu-24" target="4xoYJjt1EuWZ6XjGn5b5-111">
          <mxGeometry width="50" height="50" relative="1" as="geometry">
            <mxPoint x="-1143" y="-599" as="sourcePoint" />
            <mxPoint x="-1093" y="-649" as="targetPoint" />
          </mxGeometry>
        </mxCell>
        <mxCell id="U_6VeWmPkKvnl-wSwSqu-55" value="" style="endArrow=none;html=1;rounded=0;entryX=0;entryY=0.5;entryDx=0;entryDy=0;exitX=1;exitY=0.5;exitDx=0;exitDy=0;" edge="1" parent="1" source="U_6VeWmPkKvnl-wSwSqu-1" target="U_6VeWmPkKvnl-wSwSqu-24">
          <mxGeometry width="50" height="50" relative="1" as="geometry">
            <mxPoint x="-963" y="-591" as="sourcePoint" />
            <mxPoint x="-913" y="-641" as="targetPoint" />
          </mxGeometry>
        </mxCell>
        <mxCell id="U_6VeWmPkKvnl-wSwSqu-56" value="Director" style="ellipse;whiteSpace=wrap;html=1;" vertex="1" parent="1">
          <mxGeometry x="-1882" y="-776" width="99" height="29" as="geometry" />
        </mxCell>
        <mxCell id="U_6VeWmPkKvnl-wSwSqu-57" value="" style="endArrow=none;html=1;rounded=0;exitX=0.119;exitY=0.967;exitDx=0;exitDy=0;exitPerimeter=0;entryX=0.5;entryY=0;entryDx=0;entryDy=0;" edge="1" parent="1" source="U_6VeWmPkKvnl-wSwSqu-28" target="U_6VeWmPkKvnl-wSwSqu-56">
          <mxGeometry width="50" height="50" relative="1" as="geometry">
            <mxPoint x="-1054" y="-537" as="sourcePoint" />
            <mxPoint x="-1004" y="-587" as="targetPoint" />
          </mxGeometry>
        </mxCell>
        <mxCell id="U_6VeWmPkKvnl-wSwSqu-58" value="Account_Manager" style="ellipse;whiteSpace=wrap;html=1;" vertex="1" parent="1">
          <mxGeometry x="-2035" y="-720" width="111" height="29" as="geometry" />
        </mxCell>
        <mxCell id="U_6VeWmPkKvnl-wSwSqu-59" value="Bookeeper" style="ellipse;whiteSpace=wrap;html=1;" vertex="1" parent="1">
          <mxGeometry x="-2050" y="-679" width="99" height="29" as="geometry" />
        </mxCell>
        <mxCell id="U_6VeWmPkKvnl-wSwSqu-62" value="Auditor" style="ellipse;whiteSpace=wrap;html=1;" vertex="1" parent="1">
          <mxGeometry x="-1951" y="-668" width="99" height="29" as="geometry" />
        </mxCell>
        <mxCell id="U_6VeWmPkKvnl-wSwSqu-63" value="Accountant" style="ellipse;whiteSpace=wrap;html=1;" vertex="1" parent="1">
          <mxGeometry x="-1826" y="-655" width="99" height="29" as="geometry" />
        </mxCell>
        <mxCell id="U_6VeWmPkKvnl-wSwSqu-66" value="" style="endArrow=none;html=1;rounded=0;exitX=1;exitY=0.5;exitDx=0;exitDy=0;entryX=0;entryY=0.75;entryDx=0;entryDy=0;" edge="1" parent="1" source="U_6VeWmPkKvnl-wSwSqu-59" target="U_6VeWmPkKvnl-wSwSqu-29">
          <mxGeometry width="50" height="50" relative="1" as="geometry">
            <mxPoint x="-1264" y="-447" as="sourcePoint" />
            <mxPoint x="-1214" y="-497" as="targetPoint" />
          </mxGeometry>
        </mxCell>
        <mxCell id="U_6VeWmPkKvnl-wSwSqu-67" value="" style="endArrow=none;html=1;rounded=0;exitX=1;exitY=0;exitDx=0;exitDy=0;entryX=0.25;entryY=1;entryDx=0;entryDy=0;" edge="1" parent="1" source="U_6VeWmPkKvnl-wSwSqu-62" target="U_6VeWmPkKvnl-wSwSqu-29">
          <mxGeometry width="50" height="50" relative="1" as="geometry">
            <mxPoint x="-1264" y="-447" as="sourcePoint" />
            <mxPoint x="-1214" y="-497" as="targetPoint" />
          </mxGeometry>
        </mxCell>
        <mxCell id="U_6VeWmPkKvnl-wSwSqu-68" value="" style="endArrow=none;html=1;rounded=0;exitX=0.5;exitY=0;exitDx=0;exitDy=0;entryX=0.5;entryY=1;entryDx=0;entryDy=0;" edge="1" parent="1" source="U_6VeWmPkKvnl-wSwSqu-63" target="U_6VeWmPkKvnl-wSwSqu-29">
          <mxGeometry width="50" height="50" relative="1" as="geometry">
            <mxPoint x="-1264" y="-447" as="sourcePoint" />
            <mxPoint x="-1214" y="-497" as="targetPoint" />
          </mxGeometry>
        </mxCell>
        <mxCell id="U_6VeWmPkKvnl-wSwSqu-71" value="&lt;b&gt;Holds&lt;/b&gt;" style="rhombus;whiteSpace=wrap;html=1;" vertex="1" parent="1">
          <mxGeometry x="-1344" y="-317" width="80" height="80" as="geometry" />
        </mxCell>
        <mxCell id="U_6VeWmPkKvnl-wSwSqu-78" value="" style="shape=link;html=1;rounded=0;exitX=0;exitY=0.5;exitDx=0;exitDy=0;" edge="1" parent="1" source="U_6VeWmPkKvnl-wSwSqu-30" target="U_6VeWmPkKvnl-wSwSqu-79">
          <mxGeometry width="100" relative="1" as="geometry">
            <mxPoint x="-1575" y="-289" as="sourcePoint" />
            <mxPoint x="-1813" y="-277" as="targetPoint" />
          </mxGeometry>
        </mxCell>
        <mxCell id="U_6VeWmPkKvnl-wSwSqu-88" value="Payment&lt;div&gt;method&lt;/div&gt;" style="edgeLabel;html=1;align=center;verticalAlign=middle;resizable=0;points=[];" connectable="0" vertex="1" parent="U_6VeWmPkKvnl-wSwSqu-78">
          <mxGeometry x="-0.4534" y="7" relative="1" as="geometry">
            <mxPoint x="-12" y="8" as="offset" />
          </mxGeometry>
        </mxCell>
        <mxCell id="U_6VeWmPkKvnl-wSwSqu-79" value="d" style="ellipse;whiteSpace=wrap;html=1;aspect=fixed;" vertex="1" parent="1">
          <mxGeometry x="-1808" y="-285.5" width="16" height="16" as="geometry" />
        </mxCell>
        <mxCell id="U_6VeWmPkKvnl-wSwSqu-80" value="Debit_&lt;div&gt;Payment_&lt;div&gt;Subscription&lt;/div&gt;&lt;/div&gt;" style="ellipse;whiteSpace=wrap;html=1;" vertex="1" parent="1">
          <mxGeometry x="-2043" y="-279" width="90" height="54" as="geometry" />
        </mxCell>
        <mxCell id="U_6VeWmPkKvnl-wSwSqu-81" value="Cash_&lt;div&gt;Payment_&lt;div&gt;Subscription&lt;/div&gt;&lt;/div&gt;" style="ellipse;whiteSpace=wrap;html=1;" vertex="1" parent="1">
          <mxGeometry x="-2004" y="-214" width="90" height="54" as="geometry" />
        </mxCell>
        <mxCell id="U_6VeWmPkKvnl-wSwSqu-82" value="" style="endArrow=none;html=1;rounded=0;exitX=1;exitY=0.5;exitDx=0;exitDy=0;entryX=0;entryY=0;entryDx=0;entryDy=0;" edge="1" parent="1" source="U_6VeWmPkKvnl-wSwSqu-34" target="U_6VeWmPkKvnl-wSwSqu-79">
          <mxGeometry width="50" height="50" relative="1" as="geometry">
            <mxPoint x="-1550" y="-192" as="sourcePoint" />
            <mxPoint x="-1500" y="-242" as="targetPoint" />
          </mxGeometry>
        </mxCell>
        <mxCell id="U_6VeWmPkKvnl-wSwSqu-83" value="" style="endArrow=none;html=1;rounded=0;exitX=0;exitY=0.5;exitDx=0;exitDy=0;entryX=1;entryY=0.5;entryDx=0;entryDy=0;" edge="1" parent="1" source="U_6VeWmPkKvnl-wSwSqu-79" target="U_6VeWmPkKvnl-wSwSqu-80">
          <mxGeometry width="50" height="50" relative="1" as="geometry">
            <mxPoint x="-1550" y="-192" as="sourcePoint" />
            <mxPoint x="-1500" y="-242" as="targetPoint" />
          </mxGeometry>
        </mxCell>
        <mxCell id="U_6VeWmPkKvnl-wSwSqu-84" value="" style="endArrow=none;html=1;rounded=0;entryX=0;entryY=1;entryDx=0;entryDy=0;exitX=1;exitY=0;exitDx=0;exitDy=0;" edge="1" parent="1" source="U_6VeWmPkKvnl-wSwSqu-81" target="U_6VeWmPkKvnl-wSwSqu-79">
          <mxGeometry width="50" height="50" relative="1" as="geometry">
            <mxPoint x="-1550" y="-192" as="sourcePoint" />
            <mxPoint x="-1500" y="-242" as="targetPoint" />
          </mxGeometry>
        </mxCell>
        <mxCell id="U_6VeWmPkKvnl-wSwSqu-85" value="" style="endArrow=none;html=1;rounded=0;exitX=0.703;exitY=0.933;exitDx=0;exitDy=0;exitPerimeter=0;entryX=0;entryY=0;entryDx=0;entryDy=0;" edge="1" parent="1" source="U_6VeWmPkKvnl-wSwSqu-31" target="U_6VeWmPkKvnl-wSwSqu-30">
          <mxGeometry width="50" height="50" relative="1" as="geometry">
            <mxPoint x="-1550" y="-192" as="sourcePoint" />
            <mxPoint x="-1500" y="-242" as="targetPoint" />
          </mxGeometry>
        </mxCell>
        <mxCell id="U_6VeWmPkKvnl-wSwSqu-86" value="" style="endArrow=none;html=1;rounded=0;entryX=0.5;entryY=1;entryDx=0;entryDy=0;exitX=0.171;exitY=0.007;exitDx=0;exitDy=0;exitPerimeter=0;" edge="1" parent="1" source="U_6VeWmPkKvnl-wSwSqu-30" target="U_6VeWmPkKvnl-wSwSqu-32">
          <mxGeometry width="50" height="50" relative="1" as="geometry">
            <mxPoint x="-1550" y="-192" as="sourcePoint" />
            <mxPoint x="-1500" y="-242" as="targetPoint" />
          </mxGeometry>
        </mxCell>
        <mxCell id="U_6VeWmPkKvnl-wSwSqu-89" value="" style="shape=requiredInterface;html=1;verticalLabelPosition=bottom;sketch=0;direction=west;" vertex="1" parent="1">
          <mxGeometry x="-1649.5" y="-769" width="10" height="15" as="geometry" />
        </mxCell>
        <mxCell id="U_6VeWmPkKvnl-wSwSqu-91" value="" style="shape=requiredInterface;html=1;verticalLabelPosition=bottom;sketch=0;direction=west;" vertex="1" parent="1">
          <mxGeometry x="-1664" y="-826.5" width="10" height="15" as="geometry" />
        </mxCell>
        <mxCell id="U_6VeWmPkKvnl-wSwSqu-92" value="" style="shape=requiredInterface;html=1;verticalLabelPosition=bottom;sketch=0;direction=west;" vertex="1" parent="1">
          <mxGeometry x="-1654" y="-884" width="10" height="15" as="geometry" />
        </mxCell>
        <mxCell id="U_6VeWmPkKvnl-wSwSqu-93" value="" style="shape=requiredInterface;html=1;verticalLabelPosition=bottom;sketch=0;direction=west;" vertex="1" parent="1">
          <mxGeometry x="-1889" y="-240" width="10" height="15" as="geometry" />
        </mxCell>
        <mxCell id="U_6VeWmPkKvnl-wSwSqu-94" value="" style="shape=requiredInterface;html=1;verticalLabelPosition=bottom;sketch=0;direction=west;" vertex="1" parent="1">
          <mxGeometry x="-1906" y="-273" width="10" height="15" as="geometry" />
        </mxCell>
        <mxCell id="U_6VeWmPkKvnl-wSwSqu-95" value="" style="shape=requiredInterface;html=1;verticalLabelPosition=bottom;sketch=0;direction=west;" vertex="1" parent="1">
          <mxGeometry x="-1899" y="-307" width="10" height="15" as="geometry" />
        </mxCell>
        <mxCell id="U_6VeWmPkKvnl-wSwSqu-98" value="&lt;b&gt;1&lt;/b&gt;" style="text;html=1;align=center;verticalAlign=middle;resizable=0;points=[];autosize=1;strokeColor=none;fillColor=none;" vertex="1" parent="1">
          <mxGeometry x="31" y="-870" width="25" height="26" as="geometry" />
        </mxCell>
        <mxCell id="U_6VeWmPkKvnl-wSwSqu-99" value="Job_Type" style="ellipse;whiteSpace=wrap;html=1;" vertex="1" parent="1">
          <mxGeometry x="-1506" y="-787" width="84" height="29" as="geometry" />
        </mxCell>
        <mxCell id="U_6VeWmPkKvnl-wSwSqu-100" value="" style="endArrow=none;html=1;rounded=0;entryX=0;entryY=1;entryDx=0;entryDy=0;exitX=1;exitY=0;exitDx=0;exitDy=0;" edge="1" parent="1" source="U_6VeWmPkKvnl-wSwSqu-99" target="U_6VeWmPkKvnl-wSwSqu-1">
          <mxGeometry width="50" height="50" relative="1" as="geometry">
            <mxPoint x="-1559" y="-802" as="sourcePoint" />
            <mxPoint x="-1509" y="-852" as="targetPoint" />
          </mxGeometry>
        </mxCell>
        <mxCell id="U_6VeWmPkKvnl-wSwSqu-101" value="&lt;span style=&quot;font-size: 11px; text-wrap: nowrap; background-color: rgb(255, 255, 255);&quot;&gt;Payment&lt;/span&gt;&lt;div style=&quot;font-size: 11px; text-wrap: nowrap;&quot;&gt;method&lt;/div&gt;" style="ellipse;whiteSpace=wrap;html=1;" vertex="1" parent="1">
          <mxGeometry x="-1775" y="-232" width="62" height="40" as="geometry" />
        </mxCell>
        <mxCell id="U_6VeWmPkKvnl-wSwSqu-102" value="" style="endArrow=none;html=1;rounded=0;exitX=0.5;exitY=0;exitDx=0;exitDy=0;entryX=0;entryY=1;entryDx=0;entryDy=0;" edge="1" parent="1" source="U_6VeWmPkKvnl-wSwSqu-101" target="U_6VeWmPkKvnl-wSwSqu-30">
          <mxGeometry width="50" height="50" relative="1" as="geometry">
            <mxPoint x="-1587" y="-217" as="sourcePoint" />
            <mxPoint x="-1537" y="-267" as="targetPoint" />
          </mxGeometry>
        </mxCell>
        <mxCell id="U_6VeWmPkKvnl-wSwSqu-103" value="&lt;span style=&quot;font-size: 11px; text-wrap: nowrap; background-color: rgb(255, 255, 255);&quot;&gt;&lt;u&gt;Account_&lt;/u&gt;&lt;/span&gt;&lt;div&gt;&lt;span style=&quot;font-size: 11px; text-wrap: nowrap; background-color: rgb(255, 255, 255);&quot;&gt;&lt;u&gt;SubscriptionID&lt;/u&gt;&lt;/span&gt;&lt;/div&gt;" style="ellipse;whiteSpace=wrap;html=1;" vertex="1" parent="1">
          <mxGeometry x="-1708" y="-209" width="106" height="46" as="geometry" />
        </mxCell>
        <mxCell id="U_6VeWmPkKvnl-wSwSqu-104" value="" style="endArrow=none;html=1;rounded=0;exitX=0.166;exitY=1.019;exitDx=0;exitDy=0;exitPerimeter=0;entryX=0.5;entryY=0;entryDx=0;entryDy=0;" edge="1" parent="1" source="U_6VeWmPkKvnl-wSwSqu-30" target="U_6VeWmPkKvnl-wSwSqu-103">
          <mxGeometry width="50" height="50" relative="1" as="geometry">
            <mxPoint x="-1614" y="-258" as="sourcePoint" />
            <mxPoint x="-1564" y="-308" as="targetPoint" />
          </mxGeometry>
        </mxCell>
        <mxCell id="U_6VeWmPkKvnl-wSwSqu-105" value="&lt;b&gt;N&lt;/b&gt;" style="text;html=1;align=center;verticalAlign=middle;resizable=0;points=[];autosize=1;strokeColor=none;fillColor=none;" vertex="1" parent="1">
          <mxGeometry x="-1347" y="-880" width="27" height="26" as="geometry" />
        </mxCell>
        <mxCell id="U_6VeWmPkKvnl-wSwSqu-107" value="&lt;b&gt;N&lt;/b&gt;" style="text;html=1;align=center;verticalAlign=middle;resizable=0;points=[];autosize=1;strokeColor=none;fillColor=none;" vertex="1" parent="1">
          <mxGeometry x="-2238" y="-218" width="27" height="26" as="geometry" />
        </mxCell>
        <mxCell id="U_6VeWmPkKvnl-wSwSqu-108" value="&lt;b&gt;N&lt;/b&gt;" style="text;html=1;align=center;verticalAlign=middle;resizable=0;points=[];autosize=1;strokeColor=none;fillColor=none;" vertex="1" parent="1">
          <mxGeometry x="-1306" y="381" width="27" height="26" as="geometry" />
        </mxCell>
        <mxCell id="U_6VeWmPkKvnl-wSwSqu-111" value="&lt;b&gt;M&lt;/b&gt;" style="text;html=1;align=center;verticalAlign=middle;resizable=0;points=[];autosize=1;strokeColor=none;fillColor=none;" vertex="1" parent="1">
          <mxGeometry x="-1330" y="-221.5" width="28" height="26" as="geometry" />
        </mxCell>
        <mxCell id="U_6VeWmPkKvnl-wSwSqu-113" value="&lt;b&gt;1&lt;/b&gt;" style="text;html=1;align=center;verticalAlign=middle;resizable=0;points=[];autosize=1;strokeColor=none;fillColor=none;" vertex="1" parent="1">
          <mxGeometry x="-1369" y="-274.5" width="25" height="26" as="geometry" />
        </mxCell>
        <mxCell id="U_6VeWmPkKvnl-wSwSqu-115" value="&lt;b&gt;1&lt;/b&gt;" style="text;html=1;align=center;verticalAlign=middle;resizable=0;points=[];autosize=1;strokeColor=none;fillColor=none;" vertex="1" parent="1">
          <mxGeometry x="-2238" y="-328" width="25" height="26" as="geometry" />
        </mxCell>
        <mxCell id="U_6VeWmPkKvnl-wSwSqu-117" value="" style="shape=link;html=1;rounded=0;entryX=0;entryY=0.5;entryDx=0;entryDy=0;" edge="1" parent="1" target="U_6VeWmPkKvnl-wSwSqu-71">
          <mxGeometry width="100" relative="1" as="geometry">
            <mxPoint x="-1532" y="-273" as="sourcePoint" />
            <mxPoint x="-1356" y="-273" as="targetPoint" />
          </mxGeometry>
        </mxCell>
        <mxCell id="U_6VeWmPkKvnl-wSwSqu-118" value="" style="shape=link;html=1;rounded=0;exitX=0.5;exitY=1;exitDx=0;exitDy=0;entryX=0.5;entryY=0;entryDx=0;entryDy=0;" edge="1" parent="1" source="U_6VeWmPkKvnl-wSwSqu-71" target="IYuZv80g8VhSKte-m324-3">
          <mxGeometry width="100" relative="1" as="geometry">
            <mxPoint x="-1301" y="-36" as="sourcePoint" />
            <mxPoint x="-1201" y="-36" as="targetPoint" />
          </mxGeometry>
        </mxCell>
        <mxCell id="rF4A4lmSBF9TZgjASDwa-1" value="" style="endArrow=none;html=1;rounded=0;exitX=1;exitY=0.5;exitDx=0;exitDy=0;entryX=0;entryY=0.5;entryDx=0;entryDy=0;" edge="1" parent="1" source="U_6VeWmPkKvnl-wSwSqu-58" target="U_6VeWmPkKvnl-wSwSqu-29">
          <mxGeometry width="50" height="50" relative="1" as="geometry">
            <mxPoint x="-1941" y="-654" as="sourcePoint" />
            <mxPoint x="-1849" y="-683" as="targetPoint" />
          </mxGeometry>
        </mxCell>
        <mxCell id="rF4A4lmSBF9TZgjASDwa-2" value="" style="endArrow=none;html=1;rounded=0;exitX=1;exitY=0.5;exitDx=0;exitDy=0;entryX=0;entryY=0;entryDx=0;entryDy=0;" edge="1" parent="1" source="U_6VeWmPkKvnl-wSwSqu-44" target="U_6VeWmPkKvnl-wSwSqu-29">
          <mxGeometry width="50" height="50" relative="1" as="geometry">
            <mxPoint x="-1931" y="-644" as="sourcePoint" />
            <mxPoint x="-1839" y="-673" as="targetPoint" />
          </mxGeometry>
        </mxCell>
        <mxCell id="iTOC7wbcQoul8EuMaLCD-1" value="1" style="resizable=0;html=1;whiteSpace=wrap;align=right;verticalAlign=bottom;" connectable="0" vertex="1" parent="1">
          <mxGeometry x="-454.9985291915557" y="257.9977065056164" as="geometry">
            <mxPoint y="-1" as="offset" />
          </mxGeometry>
        </mxCell>
        <mxCell id="iTOC7wbcQoul8EuMaLCD-2" value="1" style="resizable=0;html=1;whiteSpace=wrap;align=right;verticalAlign=bottom;" connectable="0" vertex="1" parent="1">
          <mxGeometry x="-329.9985291915557" y="-245.0022934943836" as="geometry">
            <mxPoint y="-1" as="offset" />
          </mxGeometry>
        </mxCell>
        <mxCell id="Kse-NwAWGlrIyYOaurKT-1" value="Contact_details" style="ellipse;shape=doubleEllipse;whiteSpace=wrap;html=1;" vertex="1" parent="1">
          <mxGeometry x="-1152.5" y="-971.5" width="103" height="33.5" as="geometry" />
        </mxCell>
        <mxCell id="iTOC7wbcQoul8EuMaLCD-3" value="reviews" style="ellipse;shape=doubleEllipse;margin=3;whiteSpace=wrap;html=1;align=center;" vertex="1" parent="1">
          <mxGeometry x="-34" y="589" width="89" height="36" as="geometry" />
        </mxCell>
        <mxCell id="rgZPujqp305YZGb5OA_h-1" value="" style="endArrow=none;html=1;rounded=0;exitX=0.5;exitY=1;exitDx=0;exitDy=0;" edge="1" parent="1" source="IYuZv80g8VhSKte-m324-3">
          <mxGeometry width="50" height="50" relative="1" as="geometry">
            <mxPoint x="-1407" y="61" as="sourcePoint" />
            <mxPoint x="-2208" y="-227" as="targetPoint" />
            <Array as="points">
              <mxPoint x="-1307" y="677" />
              <mxPoint x="-2208" y="672" />
            </Array>
          </mxGeometry>
        </mxCell>
        <mxCell id="rgZPujqp305YZGb5OA_h-2" value="&lt;b&gt;Handles&lt;/b&gt;" style="rhombus;whiteSpace=wrap;html=1;" vertex="1" parent="1">
          <mxGeometry x="-2247" y="-301.5" width="80" height="80" as="geometry" />
        </mxCell>
        <mxCell id="rgZPujqp305YZGb5OA_h-4" value="" style="endArrow=none;html=1;rounded=0;exitX=0.883;exitY=0.074;exitDx=0;exitDy=0;exitPerimeter=0;entryX=0;entryY=1;entryDx=0;entryDy=0;" edge="1" parent="1" source="U_6VeWmPkKvnl-wSwSqu-1" target="Kse-NwAWGlrIyYOaurKT-1">
          <mxGeometry width="50" height="50" relative="1" as="geometry">
            <mxPoint x="-1409" y="-608" as="sourcePoint" />
            <mxPoint x="-1359" y="-658" as="targetPoint" />
          </mxGeometry>
        </mxCell>
        <mxCell id="rgZPujqp305YZGb5OA_h-5" value="" style="endArrow=none;html=1;rounded=0;entryX=0.5;entryY=0;entryDx=0;entryDy=0;exitX=0.5;exitY=0;exitDx=0;exitDy=0;" edge="1" parent="1" target="U_6VeWmPkKvnl-wSwSqu-1" source="rgZPujqp305YZGb5OA_h-2">
          <mxGeometry width="50" height="50" relative="1" as="geometry">
            <mxPoint x="-2221" y="-301.5" as="sourcePoint" />
            <mxPoint x="-1313" y="-853" as="targetPoint" />
            <Array as="points">
              <mxPoint x="-2207" y="-992" />
              <mxPoint x="-1352" y="-992.5" />
            </Array>
          </mxGeometry>
        </mxCell>
      </root>
    </mxGraphModel>
  </diagram>
</mxfile>
